<svg width="100" height="40" viewBox="0 0 100 40" fill="none" xmlns="http://www.w3.org/2000/svg">
<path fill-rule="evenodd" clip-rule="evenodd" d="M24.7346 4.59998H24.9286C24.7071 4.84775 24.5219 5.12568 24.3786 5.42548C23.8216 6.83848 24.2391 7.76998 22.9231 8.56648C22.6214 8.77689 22.2703 8.90525 21.9041 8.93898C21.9866 8.57898 22.4506 8.12748 22.1791 7.61148L21.6456 7.87048C20.5506 8.17848 20.0456 7.84898 19.7371 9.02048C18.9101 8.86248 17.9511 7.78948 18.6371 6.86748C19.1301 6.20498 20.1216 6.23898 21.0146 5.96098C21.2886 5.87548 21.4761 5.64548 21.7261 5.58848C21.9356 6.09948 21.5616 6.43848 21.4351 6.80248C22.4411 6.54848 22.7156 5.88948 23.3921 5.34548C23.809 5.0455 24.2595 4.7953 24.7346 4.59998ZM17.6846 9.45698L22.5691 9.47298C22.8751 9.51898 23.9976 9.36998 24.1541 9.50548C24.2152 9.78886 24.2097 10.0826 24.1381 10.3635C23.9629 10.3488 23.7866 10.371 23.6206 10.4285C23.2586 10.6705 23.0206 11.6285 22.5856 11.74L20.0461 11.724C19.7554 11.7669 19.4593 11.7559 19.1726 11.6915C18.7696 11.4315 18.5796 10.533 18.1051 10.348L17.6846 10.332V9.45698ZM8.69006 11.141H16.0331L16.0171 12.0475C14.2671 12.1655 14.4481 13.989 14.4481 15.852L14.4641 22.2145C14.4641 23.671 14.4226 25.1805 14.5141 26.537H14.4801L13.7846 26.7315C12.981 27.0105 12.1431 27.1788 11.2941 27.2315L11.0836 26.6315C10.9757 26.2161 10.8947 25.7942 10.8411 25.3685C10.7507 24.4105 10.7339 23.447 10.7911 22.4865L10.7766 17.309C10.7766 16.1815 10.9836 13.577 10.5826 12.889C10.2326 12.2925 9.59006 12.0195 8.69006 11.9825V11.141ZM25.5756 11.141H30.8966L30.8806 12.096C30.4872 12.0902 30.1021 12.2092 29.7806 12.436C28.8306 13.0655 29.0526 14.204 29.0526 15.7225C29.0472 17.0931 29.0419 18.464 29.0366 19.835L27.5161 20.8065H27.5001V15.2855C27.5001 14.4285 27.6001 13.3755 27.2576 12.857C27.0619 12.6011 26.8058 12.3976 26.5123 12.2648C26.2188 12.132 25.897 12.074 25.5756 12.096V11.141ZM22.1791 12.2255L21.8716 16.532C21.2749 16.4513 20.6694 16.4623 20.0761 16.5645L19.7201 12.2255H22.1791ZM29.8291 16C31.2236 15.976 32.5766 16.2185 32.2066 17.8135L32.0286 18.3635C31.5041 19.567 30.0871 20.7885 29.0201 21.472C29.2741 27.116 27.4291 30.5775 23.9901 32.5785C22.132 33.5765 19.9777 33.8752 17.9183 33.4204C15.8588 32.9657 14.0306 31.7876 12.7656 30.1L11.7951 28.481C10.4621 28.506 8.44906 28.222 8.07506 27.364C8.01286 27.1459 7.99948 26.9168 8.03587 26.693C8.07225 26.4692 8.1575 26.2561 8.28556 26.069C8.88426 25.1216 9.6921 24.324 10.6471 23.7375H10.6631C10.6577 23.9748 10.6524 24.2123 10.6471 24.45C9.90352 24.9119 9.26457 25.524 8.77106 26.247C8.64399 26.4011 8.58147 26.5984 8.59656 26.7975C8.61166 26.9967 8.70321 27.1823 8.85206 27.3155C9.60147 27.6139 10.4191 27.698 11.2136 27.5585C12.8226 27.3191 14.4118 26.962 15.9686 26.49C20.4455 25.1446 24.6934 23.1305 28.5686 20.516C29.4336 19.906 31.3306 18.6905 31.6256 17.634C31.9841 16.349 30.0846 16.48 29.1996 16.679V16.079L29.8291 16ZM27.2576 16.4855C27.3126 16.6857 27.3237 16.8955 27.2901 17.1005C26.6028 17.2313 25.9308 17.4324 25.2846 17.7005C25.0688 17.8272 24.8233 17.8943 24.5731 17.895L24.0881 17.571V17.55L26.0776 16.8215L27.2576 16.4855ZM22.1951 18.993L17.8766 19.8185L17.7471 19.6405L18.5396 17.8905C18.6035 17.6146 18.7248 17.3553 18.8956 17.1295L19.5426 16.919C20.8141 16.5665 22.1703 16.6873 23.3596 17.259L22.6316 18.6515C22.5795 18.6355 22.5244 18.6324 22.4709 18.6423C22.4174 18.6522 22.3671 18.6749 22.3243 18.7084C22.2814 18.742 22.2473 18.7853 22.2248 18.8349C22.2023 18.8844 22.1921 18.9386 22.1951 18.993ZM18.6371 17.2605C18.5947 17.4991 18.5008 17.7257 18.3621 17.9245L17.6341 19.592C17.5098 19.5972 17.3907 19.6427 17.2946 19.7215L16.4536 19.35L16.4696 19.3C16.7904 18.812 17.1647 18.3614 17.5856 17.9565C17.9096 17.7 18.3076 17.5245 18.6371 17.2605ZM23.4566 17.3415C23.6452 17.3729 23.8138 17.4777 23.9256 17.633L24.0226 18.6205L22.8581 18.847L22.7611 18.7L23.4566 17.3415ZM24.0711 17.714C24.3956 17.8806 24.6734 18.1255 24.8796 18.4265C24.6494 18.5264 24.4023 18.5814 24.1516 18.5885L24.0711 17.714ZM24.9766 18.556C25.5356 18.856 26.2306 20.72 26.2381 21.6805L24.5236 22.571L24.2501 19.689C24.1966 19.3681 24.1799 19.0422 24.2001 18.7175L24.9766 18.556ZM23.9736 18.7505H24.0381L24.3941 22.6505L24.0546 22.8125L21.5501 21.6805C21.5562 21.5443 21.5098 21.411 21.4206 21.308L22.4231 19.333C22.4802 19.3482 22.54 19.3502 22.598 19.3386C22.656 19.327 22.7105 19.3023 22.7574 19.2663C22.8043 19.2303 22.8422 19.184 22.8684 19.1309C22.8945 19.0779 22.9081 19.0196 22.9081 18.9605L23.9736 18.7505ZM22.1786 19.1065C22.2319 19.1448 22.2762 19.1945 22.3081 19.252L21.3051 21.2435C21.2322 21.2305 21.1572 21.2355 21.0868 21.2581C21.0163 21.2806 20.9523 21.3201 20.9006 21.373L18.6361 20.337C18.3707 20.2718 18.1225 20.1504 17.9081 19.981L22.1786 19.1065ZM16.3886 19.4625L17.2296 19.85L17.1971 19.9795L16.0651 20.19V20.175L16.3886 19.4625ZM17.2136 20.094L17.3431 20.2395L16.6151 21.8425L16.5506 21.7925L15.9036 20.79L16.0001 20.3365L17.2136 20.094ZM17.8606 20.144L20.8366 21.488C20.8556 21.6346 20.8994 21.777 20.9661 21.909L19.7691 24.19C19.5241 24.67 19.4096 25.121 18.7986 25.24L17.3106 22.925C17.0477 22.6445 16.8437 22.3141 16.7106 21.9535L17.4386 20.3035C17.5169 20.32 17.5984 20.3136 17.6732 20.2851C17.7481 20.2565 17.8131 20.207 17.8606 20.1425V20.144ZM15.7256 20.9375L15.6611 21.682L14.6111 22.265C14.5732 22.0332 14.5843 21.7962 14.6436 21.569L15.7256 20.9375ZM15.8551 20.97C16.1389 21.2826 16.3734 21.6367 16.5506 22.02L15.9681 23.315H15.9361C15.7695 22.5437 15.742 21.7489 15.8551 20.968V20.97ZM21.4676 21.7955L23.9101 22.88L23.8941 22.9125L22.6501 23.526L20.5291 24.5L19.5261 24.937L21.0786 21.942C21.1504 21.9497 21.223 21.9403 21.2906 21.9146C21.3581 21.8889 21.4186 21.8475 21.4671 21.794L21.4676 21.7955ZM16.6176 22.1515C16.8476 22.376 17.0289 22.6457 17.1501 22.9435L18.6866 25.307L17.4411 25.7925C16.9278 25.3512 16.5237 24.7971 16.2606 24.1735C16.1151 23.9753 16.0308 23.7389 16.0181 23.4935L16.6176 22.1515ZM27.4861 22.5725C27.1621 22.9 26.0746 23.248 25.9656 23.6725L25.7876 23.6075L25.6421 23.6725V23.6885L25.9001 23.785C25.8271 24.4265 25.1656 25.1015 24.8326 25.535L24.8001 25.5175L24.6706 24.174L24.5576 24.224C24.6001 24.5425 24.7576 25.571 24.6386 25.746C24.3316 25.896 24.0656 26.238 23.7651 26.426C23.0458 26.8394 22.2461 27.0933 21.4201 27.1705C20.9509 27.2328 20.4744 27.2108 20.0131 27.1055L19.5766 26.4555L19.4796 26.488V26.505L19.8031 27.005V27.055H19.7851C19.5851 26.9885 18.9851 26.741 18.8631 26.731L16.2591 27.59L14.8521 27.9785C15.3671 30.046 17.3921 31.547 19.3806 32.1715C20.6171 32.4957 21.9243 32.4221 23.1166 31.961C25.1166 31.098 26.2341 29.211 26.9166 27.023C27.1119 26.3362 27.2685 25.6389 27.3856 24.9345L27.4666 23.9145C27.5393 23.47 27.5452 23.0172 27.4841 22.571L27.4861 22.5725ZM21.5156 27.363L21.3866 29.29C21.3366 29.611 21.4366 30.011 21.1926 30.132C20.7716 30.376 20.6331 29.946 20.5781 29.614L20.3676 27.3475L21.5156 27.363Z" fill="white"/>
<path fill-rule="evenodd" clip-rule="evenodd" d="M44.8555 13.231C44.6103 13.4493 44.2917 13.567 43.9635 13.5605C43.7461 13.5668 43.5302 13.5234 43.3322 13.4335C43.1342 13.3437 42.9593 13.2098 42.821 13.042C42.4804 12.5291 42.3253 11.9151 42.3815 11.302C42.3297 10.7117 42.4876 10.122 42.8275 9.6365C42.9702 9.46905 43.1489 9.33589 43.3501 9.24691C43.5514 9.15793 43.7701 9.11541 43.99 9.1225C44.3085 9.10991 44.621 9.21204 44.8705 9.41033C45.1201 9.60861 45.2902 9.88989 45.35 10.203L46.6375 9.8955C46.5294 9.44758 46.3016 9.03746 45.9785 8.709C45.456 8.23106 44.7655 7.97939 44.058 8.009C43.6515 7.99289 43.2463 8.06398 42.8696 8.2175C42.4929 8.37101 42.1534 8.60338 41.874 8.899C41.2841 9.59351 40.9865 10.4896 41.0435 11.399C40.9946 12.2753 41.2912 13.1358 41.8695 13.796C42.3669 14.2876 43.0188 14.5924 43.7151 14.6588C44.4113 14.7253 45.1091 14.5492 45.6905 14.1605C46.1776 13.7604 46.517 13.209 46.655 12.594L45.394 12.194C45.3269 12.5873 45.1386 12.9499 44.8555 13.231ZM48.591 14.5755C48.531 14.8097 48.4232 15.0289 48.2745 15.2195C48.1948 15.3076 48.0959 15.3762 47.9854 15.42C47.875 15.4638 47.7559 15.4816 47.6375 15.472C47.4617 15.4699 47.2866 15.4508 47.1145 15.415L47.2245 16.382C47.4545 16.4319 47.6892 16.4569 47.9245 16.4565C48.137 16.4592 48.349 16.4341 48.555 16.382C48.7226 16.3405 48.8817 16.2699 49.025 16.1735C49.158 16.0782 49.2727 15.9597 49.3635 15.8235C49.4884 15.627 49.5923 15.4178 49.6735 15.1995L49.968 14.3865L51.618 9.8955H50.339L49.2495 13.209L48.1335 9.8955H46.8155L48.591 14.5755ZM51.962 14.5625H53.0165V11.4905L54.102 14.5625H55.157L56.295 11.4905V14.5625H57.345V9.8955H55.82L54.651 13.1455L53.491 9.8955H51.9615V14.5625H51.962ZM61.4525 10.157C61.0511 9.89341 60.576 9.76483 60.0965 9.79C59.7916 9.77534 59.4871 9.82511 59.2028 9.93608C58.9185 10.047 58.6608 10.2167 58.4465 10.434C58.015 10.9308 57.7958 11.5772 57.836 12.234C57.7975 12.8868 58.0159 13.5287 58.4445 14.0225C58.6553 14.2397 58.9099 14.4096 59.1913 14.5209C59.4728 14.6323 59.7746 14.6826 60.077 14.6685C60.5906 14.6954 61.0979 14.545 61.514 14.2425C61.8949 13.919 62.1513 13.473 62.239 12.981L61.0265 12.7745C60.9979 13.0318 60.8869 13.273 60.71 13.462C60.5502 13.5991 60.3444 13.6705 60.134 13.662C59.9909 13.6675 59.8484 13.6393 59.7182 13.5797C59.5879 13.5202 59.4734 13.4309 59.384 13.319C59.1652 12.9688 59.0672 12.5566 59.105 12.1455C59.0705 11.7693 59.1675 11.3927 59.3795 11.08C59.4703 10.9749 59.5836 10.8917 59.7111 10.8366C59.8385 10.7814 59.9767 10.7558 60.1155 10.7615C60.32 10.7524 60.5208 10.818 60.6805 10.946C60.8365 11.0899 60.9356 11.2851 60.9595 11.496L62.1765 11.2765C62.0677 10.8326 61.8127 10.4383 61.4525 10.157ZM62.7775 14.5625H65.4275C65.9153 14.597 66.4017 14.4779 66.8185 14.222C66.9738 14.1039 67.0974 13.9491 67.1783 13.7716C67.2592 13.594 67.2948 13.3992 67.282 13.2045C67.2872 12.913 67.196 12.6279 67.0225 12.3935C66.865 12.1711 66.6353 12.0103 66.3725 11.9385C66.0046 11.8571 65.6281 11.8217 65.2515 11.833H64.0125V9.8955H62.7775V14.5625ZM64.0125 12.594H64.8165C65.1317 12.5735 65.4479 12.6168 65.746 12.7215C65.8316 12.7635 65.9025 12.8306 65.9492 12.9138C65.9959 12.997 66.0162 13.0925 66.0075 13.1875C66.0108 13.3404 65.9574 13.4892 65.8575 13.605C65.6588 13.7521 65.4103 13.8153 65.1655 13.781H64.0155V12.594H64.0125ZM67.8755 14.563H69.106V12.572C69.2524 12.5614 69.3979 12.6027 69.517 12.6885C69.6585 12.8411 69.7696 13.0193 69.8445 13.2135L70.4595 14.5635H71.7865L71.097 13.276C71.079 13.244 71.063 13.213 71.047 13.1835C70.9651 12.953 70.8344 12.7429 70.6637 12.5677C70.4929 12.3925 70.2863 12.2563 70.058 12.1685C70.2146 12.0912 70.3517 11.9795 70.4591 11.8418C70.5665 11.704 70.6413 11.5438 70.678 11.373C70.7251 11.159 70.8265 10.9608 70.9725 10.7975C71.1699 10.7165 71.3841 10.6847 71.5965 10.705L71.592 9.8875C71.3603 9.87283 71.1976 9.8655 71.104 9.8655C70.844 9.85339 70.5866 9.92089 70.366 10.059C70.1103 10.2963 69.93 10.6036 69.8475 10.9425C69.7787 11.1807 69.6749 11.4073 69.5395 11.615C69.4242 11.7317 69.2684 11.7994 69.1045 11.804V9.8955H67.874V14.5625L67.8755 14.563ZM72.0375 14.563H73.224L75.149 11.579V14.563H76.3355V9.8955H75.1225L73.2225 12.8265V9.8955H72.036V14.5625L72.0375 14.563ZM77.2105 14.563H78.397L80.3215 11.579V14.563H81.508V9.8955H80.2955L78.3955 12.8265V9.8955H77.209V14.5625L77.2105 14.563ZM79.95 8.474C79.7858 8.57906 79.5949 8.6349 79.4 8.6349C79.205 8.6349 79.0142 8.57906 78.85 8.474C78.7839 8.41367 78.7305 8.34085 78.6927 8.25975C78.655 8.17865 78.6336 8.09088 78.63 8.0015H78.03C78.0452 8.35643 78.1955 8.69214 78.45 8.94C78.718 9.15934 79.0537 9.27918 79.4 9.27918C79.7463 9.27918 80.082 9.15934 80.35 8.94C80.6048 8.69177 80.7551 8.35546 80.77 8H80.17C80.1665 8.08964 80.1453 8.1777 80.1075 8.25906C80.0698 8.34043 80.0162 8.41349 79.95 8.474ZM45.119 24.293H46.1255V22.05H45.6255V18.3955H41.8585C41.8694 19.2544 41.7869 20.1119 41.6125 20.953C41.5229 21.3543 41.3441 21.7302 41.0895 22.053H40.584V24.294H41.584V23.0625H45.1175V24.293H45.119ZM42.3 22.05C42.6603 21.5783 42.8653 20.698 42.915 19.409H44.409L44.4025 22.05H42.3ZM49.0195 22.085C48.8802 22.1929 48.7076 22.2488 48.5315 22.243C48.3979 22.246 48.2652 22.2202 48.1423 22.1675C48.0195 22.1148 47.9094 22.0364 47.8195 21.9375C47.6162 21.7002 47.5092 21.3953 47.5195 21.083H50.6135C50.6888 20.3337 50.4837 19.583 50.038 18.976C49.8324 18.7464 49.5782 18.5656 49.2939 18.4466C49.0096 18.3277 48.7023 18.2737 48.3945 18.2885C48.1066 18.2812 47.8206 18.3361 47.556 18.4495C47.2913 18.5629 47.0542 18.7321 46.861 18.9455C46.4329 19.4507 46.2157 20.1014 46.2545 20.7625C46.2321 21.3343 46.3939 21.8981 46.716 22.371C46.9275 22.6413 47.2024 22.8554 47.5164 22.9941C47.8304 23.1329 48.1737 23.1921 48.516 23.1665C48.9693 23.1834 49.4167 23.0597 49.797 22.8125C50.1518 22.5591 50.4149 22.1975 50.547 21.782L49.3165 21.5755C49.2722 21.7728 49.1677 21.9516 49.0175 22.087L49.0195 22.085ZM47.543 20.327C47.5243 20.037 47.6171 19.7508 47.8025 19.527C47.8848 19.4356 47.9852 19.3623 48.0973 19.3116C48.2094 19.2609 48.3308 19.234 48.4538 19.2325C48.5769 19.2311 48.6988 19.2551 48.8121 19.3031C48.9254 19.3511 49.0275 19.4221 49.112 19.5115C49.3029 19.739 49.4017 20.0298 49.389 20.3265H47.5405L47.543 20.327ZM51.226 24.836H52.461V22.486C52.6479 22.7002 52.872 22.8789 53.1225 23.0135C53.3409 23.118 53.5804 23.1707 53.8225 23.1675C54.087 23.1688 54.3484 23.1112 54.5879 22.9987C54.8273 22.8863 55.0386 22.7219 55.2065 22.5175C55.615 22.0033 55.8186 21.356 55.778 20.7005C55.8169 20.0587 55.6147 19.4255 55.211 18.925C55.0422 18.7235 54.831 18.5619 54.5924 18.4518C54.3538 18.3417 54.0938 18.2857 53.831 18.288C53.5332 18.2842 53.2397 18.3599 52.981 18.5075C52.7351 18.6455 52.5269 18.8418 52.3745 19.079V18.3955H51.2245V24.838L51.226 24.836ZM52.7465 19.613C52.837 19.5019 52.9515 19.4126 53.0814 19.352C53.2113 19.2914 53.3532 19.261 53.4965 19.263C53.6373 19.2619 53.7765 19.2934 53.9031 19.3552C54.0297 19.417 54.1402 19.5073 54.226 19.619C54.4465 19.9377 54.5506 20.3226 54.5205 20.709C54.5554 21.1076 54.4548 21.5062 54.235 21.8405C54.1504 21.9495 54.0416 22.0374 53.9173 22.0972C53.793 22.1571 53.6565 22.1873 53.5185 22.1855C53.3714 22.1857 53.2263 22.1519 53.0945 22.0867C52.9627 22.0216 52.8477 21.9269 52.7585 21.81C52.5242 21.4698 52.414 21.0593 52.4465 20.6475C52.4199 20.2789 52.5254 19.9129 52.744 19.615L52.7465 19.613ZM59.44 23.063V21.072C59.5806 21.0744 59.7156 21.1277 59.82 21.222C59.9452 21.3679 60.0442 21.5343 60.1125 21.714L60.6965 23.064H62.024L61.3645 21.7765C61.2738 21.5316 61.1348 21.3074 60.956 21.1172C60.7771 20.927 60.5618 20.7746 60.323 20.669C60.4791 20.591 60.6158 20.4791 60.7231 20.3415C60.8303 20.2038 60.9055 20.0439 60.943 19.8735C60.9921 19.6597 61.0954 19.4622 61.243 19.3C61.44 19.2173 61.6544 19.1848 61.867 19.2055V18.3865C61.6223 18.3722 61.457 18.365 61.371 18.365C61.1157 18.3543 60.8628 18.4184 60.6435 18.5495C60.381 18.7872 60.1953 19.0978 60.11 19.4415C60.0369 19.6902 59.9311 19.9281 59.7955 20.149C59.7523 20.2012 59.6973 20.2424 59.6351 20.2692C59.5728 20.2959 59.5051 20.3075 59.4375 20.303V18.3955H58.2115V20.303C58.1443 20.3053 58.0774 20.2924 58.0158 20.2654C57.9542 20.2384 57.8994 20.198 57.8555 20.147C57.7192 19.9269 57.6127 19.6897 57.539 19.4415C57.4533 19.094 57.2631 18.7811 56.994 18.545C56.7824 18.42 56.5396 18.3576 56.294 18.365C56.197 18.365 56.027 18.3723 55.784 18.387V19.2045C55.9974 19.1834 56.2128 19.2159 56.4105 19.299C56.556 19.4622 56.6579 19.6594 56.707 19.8725C56.7444 20.0429 56.8195 20.2028 56.9266 20.3404C57.0338 20.478 57.1704 20.59 57.3265 20.668C57.0876 20.7736 56.8724 20.926 56.6935 21.1162C56.5146 21.3064 56.3757 21.5306 56.285 21.7755L55.626 23.063H56.953L57.542 21.713C57.6317 21.5229 57.743 21.3438 57.8735 21.179C57.9707 21.1069 58.089 21.0691 58.21 21.0715V23.062H59.436L59.44 23.063ZM63.6325 19.363C63.7867 19.2682 63.9663 19.223 64.147 19.2335C64.3787 19.2088 64.612 19.2616 64.8105 19.3835C64.8748 19.4503 64.9237 19.5303 64.954 19.618C64.9843 19.7056 64.9952 19.7987 64.986 19.891V20.014C64.5962 20.1517 64.1945 20.2531 63.786 20.317C63.448 20.372 63.1181 20.4687 62.804 20.605C62.5846 20.7077 62.4002 20.8727 62.274 21.0795C62.1464 21.2924 62.0811 21.5368 62.0855 21.785C62.0804 21.9698 62.1148 22.1536 62.1863 22.324C62.2579 22.4945 62.365 22.6477 62.5005 22.7735C62.8135 23.0473 63.2213 23.1877 63.6365 23.1645C63.9006 23.1661 64.1623 23.1137 64.4055 23.0105C64.6578 22.8999 64.8874 22.7434 65.0825 22.549C65.091 22.5725 65.106 22.621 65.1265 22.694C65.1732 22.855 65.2127 22.9767 65.245 23.059H66.4665C66.3664 22.8605 66.2918 22.6502 66.2445 22.433C66.1974 22.1329 66.1776 21.8292 66.1855 21.5255L66.1985 20.084C66.2259 19.708 66.1697 19.3307 66.034 18.979C65.901 18.7578 65.7017 18.5841 65.4645 18.4825C65.0729 18.3306 64.6534 18.264 64.234 18.287C63.7547 18.2545 63.2767 18.3678 62.863 18.612C62.5357 18.8587 62.3056 19.2127 62.213 19.612L63.334 19.812C63.3849 19.6362 63.4881 19.4801 63.63 19.3645L63.6325 19.363ZM64.986 21.066C64.994 21.2673 64.9772 21.4688 64.936 21.666C64.8861 21.8312 64.7824 21.975 64.6415 22.0745C64.4582 22.2145 64.2346 22.2914 64.004 22.294C63.9135 22.2971 63.8233 22.282 63.7388 22.2495C63.6543 22.217 63.5771 22.1679 63.512 22.105C63.4502 22.0476 63.401 21.9779 63.3677 21.9004C63.3344 21.8229 63.3176 21.7393 63.3185 21.655C63.3187 21.5679 63.3411 21.4824 63.3834 21.4063C63.4257 21.3302 63.4866 21.2661 63.5605 21.22C63.7718 21.1135 63.9986 21.0407 64.2325 21.0045C64.4855 20.9541 64.7358 20.891 64.9825 20.8155V21.0615L64.986 21.066ZM67.0695 23.061H70.0095C70.4314 23.0916 70.8505 22.9709 71.1915 22.7205C71.321 22.613 71.4244 22.4773 71.4937 22.3239C71.563 22.1705 71.5964 22.0033 71.5915 21.835C71.5919 21.5781 71.5085 21.3282 71.354 21.123C71.1752 20.893 70.9193 20.7354 70.6335 20.679C70.865 20.613 71.0683 20.4727 71.212 20.2797C71.3558 20.0866 71.4321 19.8517 71.429 19.611C71.4409 19.4364 71.4094 19.2616 71.3373 19.1021C71.2652 18.9426 71.1549 18.8035 71.016 18.697C70.643 18.4688 70.2081 18.3627 69.772 18.3935H67.0695V23.0605V23.061ZM68.313 19.185H69.1085C69.3975 19.1652 69.6875 19.208 69.9585 19.3105C70.0353 19.3491 70.099 19.4095 70.1416 19.4841C70.1842 19.5587 70.2038 19.6443 70.198 19.73C70.2031 19.8227 70.1816 19.915 70.1361 19.9959C70.0905 20.0769 70.0229 20.1432 69.941 20.187C69.679 20.3014 69.3933 20.3512 69.108 20.332H68.3125V19.1865L68.313 19.185ZM68.313 21.085H68.946C69.3097 21.0609 69.6748 21.1049 70.0225 21.2145C70.1035 21.2605 70.1715 21.3264 70.2199 21.406C70.2683 21.4856 70.2956 21.5763 70.2991 21.6694C70.3027 21.7625 70.2824 21.8549 70.2402 21.938C70.198 22.0211 70.1353 22.092 70.058 22.144C69.8146 22.2442 69.5517 22.2878 69.289 22.2715H68.313V21.085ZM72.1805 23.0625H73.4155V21.1025H75.182V23.0625H76.4215V18.3955H75.182V20.105H73.4155V18.3955H72.1805V23.0625ZM77.2745 23.0625H78.461L80.3855 20.0785V23.0625H81.572V18.3955H80.3595L78.4595 21.3265V18.3955H77.273V23.0625H77.2745ZM82.447 23.0625H83.6335L85.5585 20.0785V23.0625H86.745V18.3955H85.532L83.632 21.3265V18.3955H82.4455V23.0625H82.447ZM85.185 16.974C85.0207 17.0789 84.8299 17.1347 84.635 17.1347C84.4401 17.1347 84.2492 17.0789 84.085 16.974C84.0186 16.9136 83.9648 16.8406 83.9269 16.7592C83.889 16.6778 83.8676 16.5897 83.864 16.5H83.264C83.2791 16.8549 83.4292 17.1906 83.6835 17.4385C83.9517 17.6586 84.288 17.7789 84.635 17.7789C84.982 17.7789 85.3182 17.6586 85.5865 17.4385C85.8401 17.1902 85.9894 16.8546 86.004 16.5H85.404C85.4003 16.5897 85.3789 16.6779 85.3408 16.7592C85.3028 16.8406 85.249 16.9136 85.1825 16.974H85.185ZM42.45 31.5755C42.39 31.8097 42.2822 32.0289 42.1335 32.2195C42.0541 32.3071 41.9558 32.3754 41.846 32.4192C41.7362 32.4629 41.6178 32.481 41.5 32.472C41.3242 32.4699 41.1491 32.4508 40.977 32.415L41.087 33.382C41.317 33.4319 41.5517 33.4569 41.787 33.4565C41.9995 33.4592 42.2114 33.4341 42.4175 33.382C42.5851 33.3403 42.7442 33.2696 42.8875 33.173C43.0205 33.0777 43.1352 32.9592 43.226 32.823C43.3509 32.6265 43.4548 32.4173 43.536 32.199L43.8305 31.386L45.4805 26.895H44.196L43.106 30.2085L41.99 26.8955H40.676L42.45 31.5755ZM45.856 31.5625H47.091V29.6025H48.8575V31.5625H50.1V26.8955H48.859V28.605H47.0925V26.8955H45.8575V31.5625H45.856ZM52.2155 26.2625V25.12H50.9805V26.2625H52.2155ZM52.2155 31.5625V26.8955H50.9805V31.5625H52.2155ZM53.134 31.5625H56.074C56.4959 31.5931 56.915 31.4724 57.256 31.222C57.3856 31.1145 57.489 30.9789 57.5583 30.8255C57.6276 30.672 57.661 30.5048 57.656 30.3365C57.6563 30.0797 57.5732 29.8298 57.419 29.6245C57.24 29.3945 56.984 29.2368 56.698 29.1805C56.9295 29.1145 57.1328 28.9742 57.2765 28.7812C57.4203 28.5882 57.4966 28.3532 57.4935 28.1125C57.5054 27.9379 57.474 27.763 57.4019 27.6036C57.3299 27.4441 57.2194 27.3049 57.0805 27.1985C56.7077 26.9704 56.273 26.8643 55.837 26.895H53.134V31.5625ZM54.378 27.6865H55.173C55.462 27.6667 55.752 27.7095 56.023 27.812C56.0998 27.8506 56.1635 27.911 56.2061 27.9856C56.2487 28.0602 56.2683 28.1458 56.2625 28.2315C56.2677 28.3243 56.2463 28.4166 56.2007 28.4975C56.1552 28.5785 56.0875 28.6448 56.0055 28.6885C55.7435 28.8029 55.4578 28.8527 55.1725 28.8335H54.3775L54.378 27.6865ZM54.378 29.5865H55.0105C55.3744 29.5625 55.7396 29.6064 56.0875 29.716C56.1685 29.762 56.2364 29.828 56.2848 29.9076C56.3331 29.9872 56.3604 30.0779 56.3639 30.171C56.3674 30.2641 56.347 30.3566 56.3048 30.4396C56.2625 30.5226 56.1998 30.5935 56.1225 30.6455C55.8791 30.7458 55.6162 30.7894 55.3535 30.773H54.378V29.585V29.5865ZM60.578 30.5865C60.4387 30.6944 60.2661 30.7503 60.09 30.7445C59.9564 30.7474 59.8237 30.7217 59.7009 30.669C59.578 30.6163 59.4679 30.5378 59.378 30.439C59.1747 30.2017 59.0677 29.8968 59.078 29.5845H62.1715C62.2468 28.8352 62.0417 28.0845 61.596 27.4775C61.3904 27.2479 61.1362 27.067 60.8519 26.9481C60.5676 26.8292 60.2603 26.7752 59.9525 26.79C59.6646 26.7826 59.3784 26.8375 59.1137 26.9509C58.8489 27.0643 58.6118 27.2335 58.4185 27.447C57.9905 27.9523 57.7733 28.6029 57.812 29.264C57.7897 29.8357 57.9515 30.3995 58.2735 30.8725C58.485 31.1428 58.76 31.3568 59.0739 31.4955C59.3879 31.6343 59.7312 31.6935 60.0735 31.668C60.5268 31.6849 60.9742 31.5612 61.3545 31.314C61.7092 31.0605 61.9724 30.699 62.1045 30.2835L60.874 30.077C60.8307 30.2731 60.7283 30.4511 60.5805 30.587L60.578 30.5865ZM59.1015 28.8285C59.0828 28.5386 59.1754 28.2524 59.3605 28.0285C59.4433 27.9333 59.5461 27.8576 59.6616 27.8067C59.7771 27.7558 59.9023 27.7309 60.0285 27.734C60.1491 27.7323 60.2687 27.7563 60.3793 27.8044C60.4899 27.8526 60.589 27.9236 60.67 28.013C60.8609 28.2405 60.9597 28.5313 60.947 28.828H59.1015V28.8285ZM62.784 33.3375H64.019V30.9875C64.2059 31.2017 64.43 31.3804 64.6805 31.515C64.8988 31.6195 65.1384 31.6722 65.3805 31.669C65.645 31.6704 65.9065 31.6128 66.1459 31.5003C66.3853 31.3879 66.5967 31.2234 66.7645 31.019C67.173 30.5048 67.3766 29.8575 67.336 29.202C67.3749 28.5602 67.1727 27.927 66.769 27.4265C66.6002 27.225 66.389 27.0634 66.1504 26.9533C65.9118 26.8432 65.6518 26.7872 65.389 26.7895C65.0912 26.7857 64.7977 26.8614 64.539 27.009C64.2931 27.147 64.0849 27.3433 63.9325 27.5805V26.8955H62.7825V33.338L62.784 33.3375ZM64.305 28.1145C64.3953 28.0032 64.5098 27.9138 64.6397 27.8532C64.7696 27.7925 64.9116 27.7622 65.055 27.7645C65.1958 27.7633 65.335 27.7949 65.4616 27.8567C65.5882 27.9184 65.6987 28.0087 65.7845 28.1205C66.005 28.4392 66.1091 28.8241 66.079 29.2105C66.1139 29.6091 66.0133 30.0077 65.7935 30.342C65.7089 30.451 65.6001 30.5389 65.4758 30.5988C65.3515 30.6586 65.215 30.6888 65.077 30.687C64.9299 30.6872 64.7848 30.6534 64.653 30.5882C64.5212 30.5231 64.4062 30.4284 64.317 30.3115C64.0827 29.9713 63.9725 29.5608 64.005 29.149C63.9792 28.7793 64.0865 28.4125 64.3075 28.115L64.305 28.1145ZM71.305 27.1565C70.9036 26.8929 70.4285 26.7643 69.949 26.7895C69.6441 26.7747 69.3396 26.8244 69.0553 26.9354C68.7709 27.0464 68.5132 27.2161 68.299 27.4335C67.8671 27.9301 67.6477 28.5766 67.688 29.2335C67.6497 29.8862 67.8681 30.5281 68.2965 31.022C68.5073 31.2392 68.7619 31.4091 69.0433 31.5204C69.3248 31.6318 69.6266 31.6821 69.929 31.668C70.4427 31.695 70.95 31.5446 71.366 31.242C71.7471 30.9186 72.0036 30.4725 72.0915 29.9805L70.8785 29.774C70.8499 30.0313 70.7389 30.2725 70.562 30.4615C70.4023 30.5985 70.1967 30.6699 69.9865 30.6615C69.8434 30.667 69.701 30.6388 69.5708 30.5794C69.4405 30.5199 69.3261 30.4307 69.2365 30.319C69.0177 29.9688 68.9197 29.5566 68.9575 29.1455C68.923 28.7693 69.02 28.3927 69.232 28.08C69.3229 27.9749 69.4363 27.8917 69.5638 27.8365C69.6913 27.7814 69.8297 27.7557 69.9685 27.7615C70.1728 27.7525 70.3734 27.8181 70.533 27.946C70.689 28.0899 70.7881 28.2851 70.812 28.496L72.0295 28.2765C71.921 27.8326 71.6661 27.4383 71.306 27.157L71.305 27.1565ZM72.573 31.562H73.7595L75.6845 28.578V31.562H76.871V26.8955H75.658L73.758 29.8265V26.8955H72.5715V31.5625L72.573 31.562ZM77.223 27.8925H78.717V31.562H79.952V27.893H81.446V26.893H77.223V27.8925ZM84.228 30.5865C84.0888 30.6943 83.9164 30.7502 83.7405 30.7445C83.6069 30.7475 83.4742 30.7217 83.3513 30.669C83.2285 30.6163 83.1184 30.5379 83.0285 30.439C82.8252 30.2017 82.7182 29.8968 82.7285 29.5845H85.8225C85.8979 28.8351 85.6926 28.0843 85.2465 27.4775C85.0409 27.2479 84.7867 27.067 84.5024 26.948C84.2181 26.8291 83.9108 26.7751 83.603 26.79C83.3151 26.7825 83.029 26.8373 82.7643 26.9507C82.4996 27.0641 82.2626 27.2334 82.0695 27.447C81.6413 27.9522 81.4241 28.6029 81.463 29.264C81.4404 29.8358 81.6022 30.3997 81.9245 30.8725C82.136 31.1429 82.4109 31.3569 82.7249 31.4957C83.0388 31.6344 83.3822 31.6936 83.7245 31.668C84.1778 31.6849 84.6252 31.5612 85.0055 31.314C85.3602 31.0605 85.6233 30.699 85.7555 30.2835L84.525 30.077C84.4812 30.2734 84.3778 30.4516 84.229 30.587L84.228 30.5865ZM82.7515 28.8285C82.7327 28.5385 82.8255 28.2522 83.011 28.0285C83.0933 27.9371 83.1937 27.8638 83.3058 27.8131C83.4179 27.7624 83.5393 27.7355 83.6623 27.734C83.7854 27.7326 83.9073 27.7566 84.0206 27.8046C84.1339 27.8526 84.236 27.9236 84.3205 28.013C84.5112 28.2406 84.6098 28.5313 84.597 28.828H82.7515V28.8285ZM85.7975 27.8925H87.2915V31.562H88.5265V27.893H90.0205V26.893H85.8V27.893L85.7975 27.8925Z" fill="white"/>
</svg>
