<svg width="11" height="21" viewBox="0 0 11 21" fill="none" xmlns="http://www.w3.org/2000/svg">
<path d="M0.273024 1.687C0.182805 1.59153 0.112276 1.47923 0.0654602 1.3565C0.0186447 1.23377 -0.00353982 1.10302 0.000174522 0.971721C0.00388886 0.840419 0.0334289 0.711134 0.0871077 0.591248C0.140786 0.471362 0.217553 0.363223 0.313024 0.273005C0.408495 0.182787 0.520801 0.112257 0.64353 0.0654411C0.766259 0.0186256 0.897006 -0.00355848 1.02831 0.000155861C1.15961 0.00387021 1.2889 0.03341 1.40878 0.0870888C1.52867 0.140767 1.63681 0.217534 1.72702 0.313005L10.227 9.313C10.4026 9.49867 10.5004 9.74449 10.5004 10C10.5004 10.2555 10.4026 10.5013 10.227 10.687L1.72702 19.688C1.6374 19.7856 1.52929 19.8643 1.40896 19.9198C1.28863 19.9752 1.15849 20.0062 1.0261 20.0109C0.893704 20.0156 0.761694 19.9939 0.637737 19.9472C0.51378 19.9004 0.400347 19.8295 0.304027 19.7386C0.207706 19.6476 0.130418 19.5384 0.0766516 19.4173C0.0228854 19.2963 -0.00628702 19.1657 -0.00917149 19.0333C-0.012056 18.9008 0.0114048 18.7691 0.0598488 18.6458C0.108293 18.5225 0.180754 18.4101 0.273024 18.315L8.12502 10L0.273024 1.687Z" fill="#747474"/>
</svg>
