<svg width="11" height="21" viewBox="0 0 11 21" fill="none" xmlns="http://www.w3.org/2000/svg">
<path d="M10.7271 1.687C10.8173 1.59153 10.8878 1.47923 10.9347 1.3565C10.9815 1.23377 11.0037 1.10302 10.9999 0.971721C10.9962 0.840419 10.9667 0.711134 10.913 0.591248C10.8593 0.471362 10.7826 0.363223 10.6871 0.273005C10.5916 0.182787 10.4793 0.112257 10.3566 0.0654411C10.2339 0.0186256 10.1031 -0.00355848 9.97181 0.000155861C9.84051 0.00387021 9.71123 0.03341 9.59134 0.0870888C9.47146 0.140767 9.36332 0.217534 9.2731 0.313005L0.773098 9.313C0.597562 9.49867 0.499756 9.74449 0.499756 10C0.499756 10.2555 0.597562 10.5013 0.773098 10.687L9.2731 19.688C9.36272 19.7856 9.47084 19.8643 9.59116 19.9198C9.71149 19.9752 9.84163 20.0062 9.97402 20.0109C10.1064 20.0156 10.2384 19.9939 10.3624 19.9472C10.4863 19.9004 10.5998 19.8295 10.6961 19.7386C10.7924 19.6476 10.8697 19.5384 10.9235 19.4173C10.9772 19.2963 11.0064 19.1657 11.0093 19.0333C11.0122 18.9008 10.9887 18.7691 10.9403 18.6458C10.8918 18.5225 10.8194 18.4101 10.7271 18.315L2.8751 10L10.7271 1.687Z" fill="#747474"/>
</svg>
