<svg width="25" height="25" viewBox="0 0 25 25" fill="none" xmlns="http://www.w3.org/2000/svg">
<g clip-path="url(#clip0_0_173)">
<path d="M16.25 12.5C16.25 13.4946 15.8549 14.4484 15.1517 15.1517C14.4484 15.8549 13.4946 16.25 12.5 16.25C11.5054 16.25 10.5516 15.8549 9.84835 15.1517C9.14509 14.4484 8.75 13.4946 8.75 12.5C8.75083 12.2858 8.77125 12.0775 8.81125 11.875H7.5V16.8713C7.5 17.2188 7.78125 17.5 8.12875 17.5H16.8725C17.039 17.4997 17.1986 17.4333 17.3163 17.3154C17.4339 17.1975 17.5 17.0378 17.5 16.8713V11.875H16.1888C16.2288 12.0775 16.2492 12.2858 16.25 12.5ZM12.5 15C12.8284 14.9999 13.1535 14.9352 13.4569 14.8094C13.7603 14.6837 14.0359 14.4994 14.268 14.2671C14.5002 14.0349 14.6843 13.7592 14.8099 13.4557C14.9355 13.1523 15.0001 12.8271 15 12.4987C14.9999 12.1704 14.9352 11.8452 14.8094 11.5419C14.6837 11.2385 14.4994 10.9629 14.2671 10.7307C14.0349 10.4986 13.7592 10.3145 13.4557 10.1889C13.1523 10.0633 12.8271 9.99867 12.4987 9.99875C11.8355 9.99892 11.1996 10.2625 10.7307 10.7316C10.2619 11.2007 9.99858 11.8368 9.99875 12.5C9.99892 13.1632 10.2625 13.7992 10.7316 14.268C11.2007 14.7369 11.8368 15.0002 12.5 15ZM15.5 9.875H16.9988C17.0481 9.87516 17.097 9.86559 17.1426 9.84681C17.1883 9.82804 17.2298 9.80045 17.2647 9.76561C17.2997 9.73077 17.3274 9.68937 17.3463 9.6438C17.3653 9.59822 17.375 9.54935 17.375 9.5V8.00125C17.3752 7.95179 17.3655 7.90279 17.3467 7.85707C17.3278 7.81135 17.3001 7.7698 17.2652 7.73483C17.2302 7.69986 17.1887 7.67215 17.1429 7.6533C17.0972 7.63445 17.0482 7.62483 16.9988 7.625H15.5C15.4505 7.62483 15.4015 7.63445 15.3558 7.6533C15.3101 7.67215 15.2686 7.69986 15.2336 7.73483C15.1986 7.7698 15.1709 7.81135 15.1521 7.85707C15.1332 7.90279 15.1236 7.95179 15.1238 8.00125V9.5C15.125 9.70625 15.2937 9.875 15.5 9.875ZM12.5 0.5C9.3174 0.5 6.26515 1.76428 4.01472 4.01472C1.76428 6.26515 0.5 9.3174 0.5 12.5C0.5 15.6826 1.76428 18.7348 4.01472 20.9853C6.26515 23.2357 9.3174 24.5 12.5 24.5C14.0759 24.5 15.6363 24.1896 17.0922 23.5866C18.5481 22.9835 19.871 22.0996 20.9853 20.9853C22.0996 19.871 22.9835 18.5481 23.5866 17.0922C24.1896 15.6363 24.5 14.0759 24.5 12.5C24.5 10.9241 24.1896 9.36371 23.5866 7.9078C22.9835 6.45189 22.0996 5.12902 20.9853 4.01472C19.871 2.90042 18.5481 2.0165 17.0922 1.41345C15.6363 0.810389 14.0759 0.5 12.5 0.5ZM18.75 17.3612C18.75 18.125 18.125 18.75 17.3612 18.75H7.63875C6.875 18.75 6.25 18.125 6.25 17.3612V7.63875C6.25 6.875 6.875 6.25 7.63875 6.25H17.3612C18.125 6.25 18.75 6.875 18.75 7.63875V17.3612Z" fill="#00386B"/>
</g>
<defs>
<clipPath id="clip0_0_173">
<rect width="25" height="25" fill="white"/>
</clipPath>
</defs>
</svg>
