<svg width="24" height="24" viewBox="0 0 24 24" fill="none" xmlns="http://www.w3.org/2000/svg">
<path d="M20.3333 5H3.66667C2.75 5 2 5.75 2 6.66667V18.3333C2 19.25 2.75 20 3.66667 20H20.3333C21.25 20 21.9917 19.25 21.9917 18.3333L22 6.66667C22 5.75 21.25 5 20.3333 5ZM20.3333 18.3333H3.66667V6.66667H20.3333V18.3333ZM17.8417 17.4917L19.5 15.8333L18.2417 14.1667H16.875C16.6917 13.6417 16.5833 13.0833 16.5833 12.5C16.5833 11.9167 16.6917 11.3583 16.875 10.8333H18.2417L19.5 9.16667L17.8417 7.50833C16.75 8.325 15.9417 9.48333 15.5667 10.8333C15.4167 11.3667 15.3333 11.925 15.3333 12.5C15.3333 13.075 15.4167 13.6333 15.5667 14.1667C15.9417 15.5083 16.75 16.675 17.8417 17.4917ZM9.5 12.5C10.875 12.5 12 11.375 12 10C12 8.625 10.875 7.5 9.5 7.5C8.125 7.5 7 8.625 7 10C7 11.375 8.125 12.5 9.5 12.5ZM9.5 9.16667C9.95833 9.16667 10.3333 9.54167 10.3333 10C10.3333 10.4583 9.95833 10.8333 9.5 10.8333C9.04167 10.8333 8.66667 10.4583 8.66667 10C8.66667 9.54167 9.04167 9.16667 9.5 9.16667ZM14.5 16.325C14.5 14.2417 11.1917 13.3417 9.5 13.3417C7.80833 13.3417 4.5 14.2417 4.5 16.325V17.5H14.5V16.325ZM6.56667 15.8333C7.18333 15.4167 8.41667 15 9.5 15C10.5833 15 11.8083 15.4083 12.4333 15.8333H6.56667Z" fill="#FF8017"/>
</svg>