<?xml version="1.0" encoding="utf-8"?><!DOCTYPE svg PUBLIC "-//W3C//DTD SVG 1.1//EN" "http://www.w3.org/Graphics/SVG/1.1/DTD/svg11.dtd"><svg viewBox="0 0 100 64" xmlns="http://www.w3.org/2000/svg" xmlns:xlink="http://www.w3.org/1999/xlink"><style>:root>svg{display:none}:root>svg:target{display:block}</style><svg viewBox="0 0 24 24" fill="none" id="arrow-right" xmlns="http://www.w3.org/2000/svg">
    <path d="M5 12h14m0 0-6-6m6 6-6 6" stroke="#fff" stroke-width="2" stroke-linecap="round" stroke-linejoin="round"/>
</svg><svg fill="none" viewBox="0 0 25 25" id="down" xmlns="http://www.w3.org/2000/svg">
    <path d="m12.5 16.667-5.208-5.209 1.458-1.51 2.708 2.708v-8.49h2.083v8.49l2.709-2.708 1.458 1.51-5.208 5.209Zm-6.25 4.166a2.005 2.005 0 0 1-1.471-.611 2.01 2.01 0 0 1-.612-1.472v-3.125H6.25v3.125h12.5v-3.125h2.083v3.125c0 .573-.204 1.064-.611 1.472a2.002 2.002 0 0 1-1.472.611H6.25Z" fill="#00386B"/>
</svg><svg viewBox="0 0 24 24" fill="none" id="info-circle" xmlns="http://www.w3.org/2000/svg">
    <path fill-rule="evenodd" clip-rule="evenodd" d="M22 12c0 5.523-4.477 10-10 10S2 17.523 2 12 6.477 2 12 2s10 4.477 10 10Zm-10 5.75a.75.75 0 0 0 .75-.75v-6a.75.75 0 0 0-1.5 0v6c0 .414.336.75.75.75ZM12 7a1 1 0 1 1 0 2 1 1 0 0 1 0-2Z" fill="#fff"/>
</svg><svg fill="none" viewBox="0 0 24 24" id="location" xmlns="http://www.w3.org/2000/svg">
    <path d="M12 2C8.13 2 5 5.13 5 9c0 5.25 7 13 7 13s7-7.75 7-13c0-3.87-3.13-7-7-7ZM7 9c0-2.76 2.24-5 5-5s5 2.24 5 5c0 2.88-2.88 7.19-5 9.88C9.92 16.21 7 11.85 7 9Z" fill="#FF8017"/>
    <path d="M12 11.5a2.5 2.5 0 1 0 0-5 2.5 2.5 0 0 0 0 5Z" fill="#FF8017"/>
</svg><svg fill="none" viewBox="0 0 100 40" id="logo-sumdu" xmlns="http://www.w3.org/2000/svg">
    <path fill-rule="evenodd" clip-rule="evenodd" d="M24.735 4.6h.194a3.51 3.51 0 0 0-.55.825c-.557 1.413-.14 2.345-1.456 3.141-.302.21-.653.34-1.019.373.083-.36.547-.812.275-1.328l-.533.26c-1.095.307-1.6-.022-1.909 1.15-.827-.159-1.786-1.232-1.1-2.154.493-.662 1.485-.628 2.378-.906.274-.086.461-.316.711-.373.21.511-.164.85-.29 1.214 1.005-.254 1.28-.913 1.956-1.457.417-.3.867-.55 1.343-.745Zm-7.05 4.857 4.884.016c.306.046 1.429-.103 1.585.032.061.284.056.578-.016.858a1.26 1.26 0 0 0-.517.066c-.362.242-.6 1.2-1.035 1.311l-2.54-.016c-.29.043-.587.032-.873-.033-.403-.26-.593-1.158-1.068-1.343l-.42-.016v-.875ZM8.69 11.141h7.343l-.016.906c-1.75.118-1.569 1.942-1.569 3.805l.016 6.363c0 1.456-.041 2.965.05 4.322h-.034l-.695.195a9.362 9.362 0 0 1-2.49.5l-.211-.6a9.986 9.986 0 0 1-.243-1.264 18.788 18.788 0 0 1-.05-2.881l-.014-5.178c0-1.128.207-3.732-.194-4.42-.35-.596-.993-.87-1.893-.906v-.842Zm16.886 0h5.32l-.015.955a1.86 1.86 0 0 0-1.1.34c-.95.63-.728 1.768-.728 3.287l-.016 4.112-1.52.971H27.5v-5.52c0-.857.1-1.91-.242-2.429a1.95 1.95 0 0 0-1.682-.761v-.955Zm-3.397 1.085-.307 4.306a5.91 5.91 0 0 0-1.796.032l-.356-4.338h2.46ZM29.83 16c1.395-.024 2.748.218 2.378 1.814l-.178.55c-.525 1.203-1.942 2.424-3.009 3.108.254 5.644-1.59 9.105-5.03 11.106A8.815 8.815 0 0 1 12.766 30.1l-.97-1.619c-1.334.025-3.347-.259-3.72-1.117a1.543 1.543 0 0 1 .21-1.295 7.333 7.333 0 0 1 2.361-2.331h.016l-.016.712a6.29 6.29 0 0 0-1.876 1.797.773.773 0 0 0 .081 1.069 4.35 4.35 0 0 0 2.362.242 33.257 33.257 0 0 0 4.755-1.068 46.412 46.412 0 0 0 12.6-5.974c.865-.61 2.762-1.825 3.057-2.882.358-1.285-1.541-1.154-2.426-.955v-.6l.63-.079Zm-2.571.485c.055.2.066.41.032.616-.687.13-1.36.331-2.005.6a1.413 1.413 0 0 1-.712.194l-.485-.324v-.021l1.99-.729 1.18-.336Zm-5.063 2.508-4.318.826-.13-.178.793-1.75c.064-.276.185-.536.356-.761l.647-.211a5.45 5.45 0 0 1 3.817.34l-.728 1.392a.338.338 0 0 0-.437.342Zm-3.558-1.732a1.672 1.672 0 0 1-.275.663l-.728 1.668a.573.573 0 0 0-.34.13l-.84-.372.016-.05a7.84 7.84 0 0 1 1.116-1.344c.324-.256.722-.431 1.051-.695Zm4.82.08a.725.725 0 0 1 .469.292l.097.988-1.165.226-.097-.147.696-1.358Zm.614.373c.325.167.602.412.809.713-.23.1-.478.154-.728.162l-.08-.875Zm.906.842c.559.3 1.254 2.164 1.261 3.124l-1.714.891-.274-2.882a4.288 4.288 0 0 1-.05-.971l.777-.162Zm-1.003.194h.064l.356 3.9-.34.163-2.504-1.133a.533.533 0 0 0-.13-.372l1.003-1.975a.386.386 0 0 0 .485-.372l1.066-.21Zm-1.795.357a.445.445 0 0 1 .13.145l-1.004 1.992a.454.454 0 0 0-.404.129l-2.265-1.036a1.909 1.909 0 0 1-.728-.356l4.27-.875Zm-5.79.355.84.388-.032.13-1.132.21v-.015l.324-.713Zm.825.632.13.145-.729 1.604-.064-.05-.647-1.003.096-.453 1.214-.243Zm.647.05 2.976 1.344c.019.147.062.289.13.421l-1.198 2.281c-.245.48-.36.931-.97 1.05l-1.488-2.315a2.878 2.878 0 0 1-.6-.972l.728-1.65a.417.417 0 0 0 .422-.16v.001Zm-2.135.794-.065.744-1.05.583a1.681 1.681 0 0 1 .033-.696l1.082-.631Zm.13.032c.283.313.517.667.695 1.05l-.583 1.295h-.032a6.621 6.621 0 0 1-.08-2.347v.002Zm5.612.826 2.442 1.084-.016.033-1.244.613-2.12.974-1.004.437 1.553-2.995a.459.459 0 0 0 .388-.148v.002Zm-4.85.355c.23.225.41.495.532.793l1.537 2.363-1.246.486a4.381 4.381 0 0 1-1.18-1.62 1.26 1.26 0 0 1-.243-.68l.6-1.341Zm10.868.422c-.324.327-1.411.675-1.52 1.1l-.178-.065-.146.064v.017l.258.096c-.073.642-.734 1.317-1.067 1.75l-.033-.018-.13-1.343-.112.05c.042.319.2 1.347.08 1.522-.306.15-.572.492-.873.68a5.787 5.787 0 0 1-2.345.745c-.47.062-.946.04-1.407-.066l-.436-.65-.097.033v.017l.323.5v.05h-.018c-.2-.067-.8-.314-.922-.324l-2.604.859-1.407.389c.515 2.067 2.54 3.568 4.529 4.193a6.081 6.081 0 0 0 3.736-.211c2-.863 3.117-2.75 3.8-4.938.195-.687.351-1.384.469-2.088l.08-1.02c.073-.445.08-.898.018-1.344l.002.002Zm-5.97 4.79-.13 1.927c-.05.321.05.721-.193.842-.421.244-.56-.186-.615-.518l-.21-2.267 1.148.016ZM44.855 13.231a1.303 1.303 0 0 1-.891.33 1.427 1.427 0 0 1-1.143-.519 2.7 2.7 0 0 1-.44-1.74 2.52 2.52 0 0 1 .447-1.665 1.465 1.465 0 0 1 1.162-.514 1.33 1.33 0 0 1 1.36 1.08l1.288-.307a2.543 2.543 0 0 0-.66-1.187 2.68 2.68 0 0 0-1.92-.7 2.85 2.85 0 0 0-2.184.89 3.521 3.521 0 0 0-.83 2.5 3.354 3.354 0 0 0 .826 2.397 3.035 3.035 0 0 0 3.82.365c.488-.4.827-.952.965-1.567l-1.261-.4a1.915 1.915 0 0 1-.538 1.037Zm3.736 1.345c-.06.234-.168.453-.316.643a.775.775 0 0 1-.637.253 2.728 2.728 0 0 1-.523-.057l.11.967c.23.05.464.075.7.074.212.003.424-.022.63-.074a1.48 1.48 0 0 0 .47-.209c.133-.095.248-.213.339-.35.124-.196.228-.405.31-.623l.294-.813 1.65-4.492h-1.279l-1.09 3.314-1.116-3.313h-1.318l1.776 4.68Zm3.371-.014h1.054v-3.071l1.086 3.072h1.055l1.138-3.072v3.072h1.05V9.895H55.82l-1.169 3.25-1.16-3.25h-1.53v4.668h.001Zm9.49-4.405a2.255 2.255 0 0 0-1.355-.367 2.171 2.171 0 0 0-1.65.644 2.511 2.511 0 0 0-.611 1.8c-.038.653.18 1.295.608 1.789a2.135 2.135 0 0 0 1.633.646 2.244 2.244 0 0 0 1.437-.427c.38-.323.637-.769.725-1.261l-1.212-.207a1.2 1.2 0 0 1-.317.688.833.833 0 0 1-.576.2.915.915 0 0 1-.75-.343 1.888 1.888 0 0 1-.279-1.174 1.633 1.633 0 0 1 .275-1.065.921.921 0 0 1 .735-.319.843.843 0 0 1 .566.185c.156.144.255.34.279.55l1.216-.22a2.035 2.035 0 0 0-.724-1.119Zm1.326 4.405h2.65c.487.035.974-.084 1.39-.34a1.181 1.181 0 0 0 .464-1.018 1.323 1.323 0 0 0-.26-.81 1.176 1.176 0 0 0-.65-.456 4.556 4.556 0 0 0-1.12-.105h-1.24V9.895h-1.234v4.668Zm1.235-1.968h.803c.316-.02.632.023.93.128a.471.471 0 0 1 .261.466.619.619 0 0 1-.15.417.943.943 0 0 1-.692.176h-1.15v-1.187h-.002Zm3.862 1.969h1.231v-1.991c.146-.01.292.03.411.117.142.152.253.33.328.524l.615 1.35h1.327l-.69-1.287-.05-.092a1.696 1.696 0 0 0-.989-1.015 1.16 1.16 0 0 0 .62-.796c.047-.214.148-.412.294-.575.198-.082.412-.113.625-.093l-.005-.818a9.004 9.004 0 0 0-.488-.021 1.278 1.278 0 0 0-.738.193 1.78 1.78 0 0 0-.519.884 2.503 2.503 0 0 1-.307.672.637.637 0 0 1-.436.189V9.895h-1.23v4.668h.002Zm4.162 0h1.187l1.925-2.984v2.984h1.186V9.895h-1.212l-1.9 2.931v-2.93h-1.187v4.666l.001.001Zm5.173 0h1.187l1.924-2.984v2.984h1.187V9.895h-1.212l-1.9 2.931v-2.93h-1.187v4.666l.001.001Zm2.74-6.089a1.02 1.02 0 0 1-1.1 0 .677.677 0 0 1-.22-.473h-.6c.015.355.165.691.42.939a1.5 1.5 0 0 0 1.9 0c.255-.248.405-.585.42-.94h-.6a.678.678 0 0 1-.22.474ZM45.119 24.293h1.007V22.05h-.5v-3.655h-3.767c.01.86-.072 1.717-.247 2.558a2.74 2.74 0 0 1-.523 1.1h-.505v2.241h1v-1.232h3.533v1.231h.002ZM42.3 22.05c.36-.472.565-1.352.615-2.641h1.494l-.006 2.641H42.3Zm6.72.035a.756.756 0 0 1-.489.158.934.934 0 0 1-.712-.305 1.25 1.25 0 0 1-.3-.855h3.095c.075-.75-.13-1.5-.576-2.107a2.073 2.073 0 0 0-1.643-.688 2 2 0 0 0-1.534.657 2.577 2.577 0 0 0-.606 1.817c-.023.572.139 1.136.461 1.609a2.087 2.087 0 0 0 1.8.796 2.2 2.2 0 0 0 1.281-.355c.355-.253.618-.614.75-1.03l-1.23-.206a.977.977 0 0 1-.3.511l.002-.002Zm-1.477-1.758a1.14 1.14 0 0 1 .26-.8.89.89 0 0 1 1.309-.015c.19.227.29.518.277.814H47.54l.003.001Zm3.683 4.509h1.235v-2.35c.187.214.411.393.662.527.218.105.457.158.7.154a1.78 1.78 0 0 0 1.383-.65 2.657 2.657 0 0 0 .572-1.816 2.58 2.58 0 0 0-.567-1.776 1.78 1.78 0 0 0-1.38-.637 1.724 1.724 0 0 0-1.457.791v-.684h-1.15v6.443l.002-.002Zm1.52-5.223a.95.95 0 0 1 .75-.35.91.91 0 0 1 .73.356c.22.319.325.704.294 1.09.035.399-.065.797-.285 1.131a.891.891 0 0 1-.716.346.953.953 0 0 1-.76-.376 1.8 1.8 0 0 1-.313-1.162 1.556 1.556 0 0 1 .298-1.033l.002-.002Zm6.694 3.45v-1.991c.14.002.276.056.38.15.125.146.224.312.292.492l.584 1.35h1.328l-.66-1.288a1.953 1.953 0 0 0-1.041-1.107 1.171 1.171 0 0 0 .62-.796c.05-.213.152-.41.3-.573a1.29 1.29 0 0 1 .624-.095v-.818c-.245-.015-.41-.022-.496-.022a1.31 1.31 0 0 0-.727.184 1.783 1.783 0 0 0-.534.893 2.934 2.934 0 0 1-.315.707.428.428 0 0 1-.358.154v-1.908h-1.225v1.908a.45.45 0 0 1-.357-.156 2.917 2.917 0 0 1-.316-.705 1.75 1.75 0 0 0-.545-.897 1.3 1.3 0 0 0-.7-.18 9.87 9.87 0 0 0-.51.022v.817a1.29 1.29 0 0 1 .627.095 1.3 1.3 0 0 1 .296.573 1.17 1.17 0 0 0 .62.796 1.953 1.953 0 0 0-1.042 1.108l-.659 1.287h1.327l.589-1.35c.09-.19.201-.37.331-.534a.547.547 0 0 1 .337-.107v1.99h1.226l.004.001Zm4.193-3.7a.884.884 0 0 1 .514-.13c.232-.024.465.029.663.15a.639.639 0 0 1 .176.508v.123c-.39.138-.791.24-1.2.303a4.135 4.135 0 0 0-.982.288c-.22.103-.404.268-.53.474a1.327 1.327 0 0 0-.188.706 1.3 1.3 0 0 0 .415.988c.313.274.72.415 1.136.392.264.001.525-.051.769-.154.252-.111.481-.268.676-.462.009.024.024.072.044.145.047.161.087.283.119.365h1.221a2.636 2.636 0 0 1-.221-.626 5.012 5.012 0 0 1-.06-.907l.013-1.442a2.554 2.554 0 0 0-.164-1.105 1.23 1.23 0 0 0-.57-.496 2.955 2.955 0 0 0-1.23-.196 2.38 2.38 0 0 0-1.371.325c-.327.247-.557.6-.65 1l1.121.2a.9.9 0 0 1 .296-.448l.002-.001Zm1.353 1.703c.008.201-.009.403-.05.6a.774.774 0 0 1-.295.409 1.07 1.07 0 0 1-.637.219.674.674 0 0 1-.636-.394.605.605 0 0 1-.05-.245.514.514 0 0 1 .242-.435c.212-.107.439-.18.672-.215a7.71 7.71 0 0 0 .75-.19v.246l.004.005Zm2.084 1.995h2.94c.421.03.84-.09 1.181-.34a1.109 1.109 0 0 0 .4-.886 1.18 1.18 0 0 0-.237-.712 1.209 1.209 0 0 0-.72-.444 1.096 1.096 0 0 0 .795-1.068 1.06 1.06 0 0 0-.413-.914 2.1 2.1 0 0 0-1.244-.303h-2.703v4.667Zm1.243-3.876h.796c.288-.02.579.023.85.126a.437.437 0 0 1 .239.419.488.488 0 0 1-.257.457 1.783 1.783 0 0 1-.833.145h-.796v-1.146l.001-.001Zm0 1.9h.633c.364-.024.729.02 1.076.13a.547.547 0 0 1 .036.929c-.243.1-.506.144-.769.128h-.976v-1.187Zm3.867 1.977h1.235v-1.96h1.767v1.96h1.24v-4.667h-1.24v1.71h-1.767v-1.71H72.18v4.668Zm5.094 0h1.187l1.924-2.984v2.985h1.187v-4.668h-1.213l-1.9 2.931v-2.93h-1.186v4.666h.002Zm5.173 0h1.186l1.925-2.984v2.985h1.187v-4.668h-1.213l-1.9 2.931v-2.93h-1.187v4.666h.002Zm2.738-6.088a1.022 1.022 0 0 1-1.1 0 .676.676 0 0 1-.221-.474h-.6c.015.355.165.69.42.939a1.5 1.5 0 0 0 1.903 0c.253-.249.402-.584.417-.939h-.6a.677.677 0 0 1-.221.474h.002ZM42.45 31.576c-.06.234-.168.453-.317.643a.776.776 0 0 1-.633.253 2.728 2.728 0 0 1-.523-.057l.11.967c.23.05.465.075.7.075.212.002.424-.023.63-.075a1.48 1.48 0 0 0 .47-.209c.133-.095.248-.214.339-.35.125-.197.229-.406.31-.624l.294-.813 1.65-4.491h-1.284l-1.09 3.314-1.116-3.314h-1.314l1.774 4.68Zm3.406-.014h1.235v-1.96h1.767v1.96H50.1v-4.667h-1.241v1.71h-1.767v-1.71h-1.234v4.668h-.002Zm6.36-5.3V25.12H50.98v1.142h1.236Zm0 5.3v-4.667H50.98v4.668h1.236Zm.918 0h2.94c.422.031.841-.09 1.182-.34a1.108 1.108 0 0 0 .4-.886c0-.256-.083-.506-.237-.711a1.21 1.21 0 0 0-.721-.445 1.096 1.096 0 0 0 .795-1.067 1.06 1.06 0 0 0-.413-.915 2.1 2.1 0 0 0-1.243-.303h-2.703v4.668Zm1.244-3.876h.795c.289-.02.579.023.85.126a.437.437 0 0 1 .24.42.486.486 0 0 1-.258.457 1.783 1.783 0 0 1-.833.145h-.794v-1.148Zm0 1.9h.633c.363-.023.729.02 1.076.13a.547.547 0 0 1 .035.93c-.243.1-.506.143-.769.127h-.975v-1.188.002Zm6.2 1a.756.756 0 0 1-.488.159.935.935 0 0 1-.712-.306 1.25 1.25 0 0 1-.3-.855h3.093c.076-.749-.13-1.5-.575-2.107a2.072 2.072 0 0 0-1.643-.687 2 2 0 0 0-1.535.657 2.578 2.578 0 0 0-.606 1.817c-.022.572.14 1.136.462 1.608a2.088 2.088 0 0 0 1.8.796 2.2 2.2 0 0 0 1.28-.354c.355-.253.618-.615.75-1.03l-1.23-.207a.98.98 0 0 1-.294.51h-.002Zm-1.477-1.758a1.14 1.14 0 0 1 .26-.8.857.857 0 0 1 .668-.294.85.85 0 0 1 .641.279c.19.227.29.518.277.815h-1.846Zm3.683 4.51h1.235v-2.35c.187.214.411.392.661.527.219.104.458.157.7.154a1.778 1.778 0 0 0 1.385-.65 2.657 2.657 0 0 0 .571-1.817 2.58 2.58 0 0 0-.567-1.776 1.78 1.78 0 0 0-1.38-.636 1.724 1.724 0 0 0-1.456.791v-.686h-1.15v6.443h.001Zm1.521-5.224a.946.946 0 0 1 .75-.35.91.91 0 0 1 .73.357c.22.318.324.703.294 1.09.035.398-.066.797-.285 1.131a.893.893 0 0 1-.717.345.953.953 0 0 1-.76-.376 1.8 1.8 0 0 1-.312-1.162c-.026-.37.082-.736.303-1.034h-.003Zm7-.957a2.255 2.255 0 0 0-1.356-.367 2.168 2.168 0 0 0-1.65.643 2.509 2.509 0 0 0-.611 1.8c-.038.653.18 1.295.608 1.789a2.135 2.135 0 0 0 1.633.646 2.243 2.243 0 0 0 1.437-.426 2.15 2.15 0 0 0 .725-1.262l-1.212-.206a1.2 1.2 0 0 1-.317.688.833.833 0 0 1-.575.2.917.917 0 0 1-.75-.343 1.888 1.888 0 0 1-.28-1.174 1.633 1.633 0 0 1 .275-1.065.924.924 0 0 1 .737-.318.843.843 0 0 1 .564.184c.156.144.255.34.279.55l1.218-.22a2.033 2.033 0 0 0-.724-1.119h-.001Zm1.268 4.405h1.187l1.924-2.984v2.984h1.187v-4.667h-1.213l-1.9 2.931v-2.93h-1.186v4.666h.001Zm4.65-3.67h1.494v3.67h1.235v-3.669h1.494v-1h-4.223v1Zm7.005 2.695a.756.756 0 0 1-.487.157.934.934 0 0 1-.713-.305 1.25 1.25 0 0 1-.3-.855h3.095c.075-.749-.13-1.5-.576-2.107a2.074 2.074 0 0 0-1.644-.687 1.998 1.998 0 0 0-1.533.657 2.576 2.576 0 0 0-.607 1.817c-.023.572.14 1.136.462 1.608a2.088 2.088 0 0 0 1.8.796 2.2 2.2 0 0 0 1.28-.354c.355-.253.618-.615.75-1.03l-1.23-.207a.977.977 0 0 1-.296.51h-.001Zm-1.477-1.759c-.018-.29.075-.576.26-.8a.89.89 0 0 1 1.31-.015c.19.228.289.518.276.815h-1.846Zm3.046-.936h1.495v3.67h1.234v-3.669h1.495v-1H85.8v1h-.002Z" fill="#fff"/>
</svg><svg fill="none" viewBox="0 0 100 40" id="logos" xmlns="http://www.w3.org/2000/svg">
    <path fill-rule="evenodd" clip-rule="evenodd" d="M24.735 4.6h.194a3.51 3.51 0 0 0-.55.825c-.557 1.413-.14 2.345-1.456 3.141-.302.21-.653.34-1.019.373.083-.36.547-.812.275-1.328l-.533.26c-1.095.307-1.6-.022-1.909 1.15-.827-.159-1.786-1.232-1.1-2.154.493-.662 1.485-.628 2.378-.906.274-.086.461-.316.711-.373.21.511-.164.85-.29 1.214 1.005-.254 1.28-.913 1.956-1.457.417-.3.867-.55 1.343-.745Zm-7.05 4.857 4.884.016c.306.046 1.429-.103 1.585.032.061.284.056.578-.016.858a1.26 1.26 0 0 0-.517.066c-.362.242-.6 1.2-1.035 1.311l-2.54-.016c-.29.043-.587.032-.873-.033-.403-.26-.593-1.158-1.068-1.343l-.42-.016v-.875ZM8.69 11.141h7.343l-.016.906c-1.75.118-1.569 1.942-1.569 3.805l.016 6.363c0 1.456-.041 2.965.05 4.322h-.034l-.695.195a9.362 9.362 0 0 1-2.49.5l-.211-.6a9.986 9.986 0 0 1-.243-1.264 18.788 18.788 0 0 1-.05-2.881l-.014-5.178c0-1.128.207-3.732-.194-4.42-.35-.596-.993-.87-1.893-.906v-.842Zm16.886 0h5.32l-.015.955a1.86 1.86 0 0 0-1.1.34c-.95.63-.728 1.768-.728 3.287l-.016 4.112-1.52.971H27.5v-5.52c0-.857.1-1.91-.242-2.429a1.95 1.95 0 0 0-1.682-.761v-.955Zm-3.397 1.085-.307 4.306a5.91 5.91 0 0 0-1.796.032l-.356-4.338h2.46ZM29.83 16c1.395-.024 2.748.218 2.378 1.814l-.178.55c-.525 1.203-1.942 2.424-3.009 3.108.254 5.644-1.59 9.105-5.03 11.106A8.815 8.815 0 0 1 12.766 30.1l-.97-1.619c-1.334.025-3.347-.259-3.72-1.117a1.543 1.543 0 0 1 .21-1.295 7.333 7.333 0 0 1 2.361-2.331h.016l-.016.712a6.29 6.29 0 0 0-1.876 1.797.773.773 0 0 0 .081 1.069 4.35 4.35 0 0 0 2.362.242 33.257 33.257 0 0 0 4.755-1.068 46.412 46.412 0 0 0 12.6-5.974c.865-.61 2.762-1.825 3.057-2.882.358-1.285-1.541-1.154-2.426-.955v-.6l.63-.079Zm-2.571.485c.055.2.066.41.032.616-.687.13-1.36.331-2.005.6a1.413 1.413 0 0 1-.712.194l-.485-.324v-.021l1.99-.729 1.18-.336Zm-5.063 2.508-4.318.826-.13-.178.793-1.75c.064-.276.185-.536.356-.761l.647-.211a5.45 5.45 0 0 1 3.817.34l-.728 1.392a.338.338 0 0 0-.437.342Zm-3.558-1.732a1.672 1.672 0 0 1-.275.663l-.728 1.668a.573.573 0 0 0-.34.13l-.84-.372.016-.05a7.84 7.84 0 0 1 1.116-1.344c.324-.256.722-.431 1.051-.695Zm4.82.08a.725.725 0 0 1 .469.292l.097.988-1.165.226-.097-.147.696-1.358Zm.614.373c.325.167.602.412.809.713-.23.1-.478.154-.728.162l-.08-.875Zm.906.842c.559.3 1.254 2.164 1.261 3.124l-1.714.891-.274-2.882a4.288 4.288 0 0 1-.05-.971l.777-.162Zm-1.003.194h.064l.356 3.9-.34.163-2.504-1.133a.533.533 0 0 0-.13-.372l1.003-1.975a.386.386 0 0 0 .485-.372l1.066-.21Zm-1.795.357a.445.445 0 0 1 .13.145l-1.004 1.992a.454.454 0 0 0-.404.129l-2.265-1.036a1.909 1.909 0 0 1-.728-.356l4.27-.875Zm-5.79.355.84.388-.032.13-1.132.21v-.015l.324-.713Zm.825.632.13.145-.729 1.604-.064-.05-.647-1.003.096-.453 1.214-.243Zm.647.05 2.976 1.344c.019.147.062.289.13.421l-1.198 2.281c-.245.48-.36.931-.97 1.05l-1.488-2.315a2.878 2.878 0 0 1-.6-.972l.728-1.65a.417.417 0 0 0 .422-.16v.001Zm-2.135.794-.065.744-1.05.583a1.681 1.681 0 0 1 .033-.696l1.082-.631Zm.13.032c.283.313.517.667.695 1.05l-.583 1.295h-.032a6.621 6.621 0 0 1-.08-2.347v.002Zm5.612.826 2.442 1.084-.016.033-1.244.613-2.12.974-1.004.437 1.553-2.995a.459.459 0 0 0 .388-.148v.002Zm-4.85.355c.23.225.41.495.532.793l1.537 2.363-1.246.486a4.381 4.381 0 0 1-1.18-1.62 1.26 1.26 0 0 1-.243-.68l.6-1.341Zm10.868.422c-.324.327-1.411.675-1.52 1.1l-.178-.065-.146.064v.017l.258.096c-.073.642-.734 1.317-1.067 1.75l-.033-.018-.13-1.343-.112.05c.042.319.2 1.347.08 1.522-.306.15-.572.492-.873.68a5.787 5.787 0 0 1-2.345.745c-.47.062-.946.04-1.407-.066l-.436-.65-.097.033v.017l.323.5v.05h-.018c-.2-.067-.8-.314-.922-.324l-2.604.859-1.407.389c.515 2.067 2.54 3.568 4.529 4.193a6.081 6.081 0 0 0 3.736-.211c2-.863 3.117-2.75 3.8-4.938.195-.687.351-1.384.469-2.088l.08-1.02c.073-.445.08-.898.018-1.344l.002.002Zm-5.97 4.79-.13 1.927c-.05.321.05.721-.193.842-.421.244-.56-.186-.615-.518l-.21-2.267 1.148.016ZM44.855 13.231a1.303 1.303 0 0 1-.891.33 1.427 1.427 0 0 1-1.143-.519 2.7 2.7 0 0 1-.44-1.74 2.52 2.52 0 0 1 .447-1.665 1.465 1.465 0 0 1 1.162-.514 1.33 1.33 0 0 1 1.36 1.08l1.288-.307a2.543 2.543 0 0 0-.66-1.187 2.68 2.68 0 0 0-1.92-.7 2.85 2.85 0 0 0-2.184.89 3.521 3.521 0 0 0-.83 2.5 3.354 3.354 0 0 0 .826 2.397 3.035 3.035 0 0 0 3.82.365c.488-.4.827-.952.965-1.567l-1.261-.4a1.915 1.915 0 0 1-.538 1.037Zm3.736 1.345c-.06.234-.168.453-.316.643a.775.775 0 0 1-.637.253 2.728 2.728 0 0 1-.523-.057l.11.967c.23.05.464.075.7.074.212.003.424-.022.63-.074a1.48 1.48 0 0 0 .47-.209c.133-.095.248-.213.339-.35.124-.196.228-.405.31-.623l.294-.813 1.65-4.492h-1.279l-1.09 3.314-1.116-3.313h-1.318l1.776 4.68Zm3.371-.014h1.054v-3.071l1.086 3.072h1.055l1.138-3.072v3.072h1.05V9.895H55.82l-1.169 3.25-1.16-3.25h-1.53v4.668h.001Zm9.49-4.405a2.255 2.255 0 0 0-1.355-.367 2.171 2.171 0 0 0-1.65.644 2.511 2.511 0 0 0-.611 1.8c-.038.653.18 1.295.608 1.789a2.135 2.135 0 0 0 1.633.646 2.244 2.244 0 0 0 1.437-.427c.38-.323.637-.769.725-1.261l-1.212-.207a1.2 1.2 0 0 1-.317.688.833.833 0 0 1-.576.2.915.915 0 0 1-.75-.343 1.888 1.888 0 0 1-.279-1.174 1.633 1.633 0 0 1 .275-1.065.921.921 0 0 1 .735-.319.843.843 0 0 1 .566.185c.156.144.255.34.279.55l1.216-.22a2.035 2.035 0 0 0-.724-1.119Zm1.326 4.405h2.65c.487.035.974-.084 1.39-.34a1.181 1.181 0 0 0 .464-1.018 1.323 1.323 0 0 0-.26-.81 1.176 1.176 0 0 0-.65-.456 4.556 4.556 0 0 0-1.12-.105h-1.24V9.895h-1.234v4.668Zm1.235-1.968h.803c.316-.02.632.023.93.128a.471.471 0 0 1 .261.466.619.619 0 0 1-.15.417.943.943 0 0 1-.692.176h-1.15v-1.187h-.002Zm3.862 1.969h1.231v-1.991c.146-.01.292.03.411.117.142.152.253.33.328.524l.615 1.35h1.327l-.69-1.287-.05-.092a1.696 1.696 0 0 0-.989-1.015 1.16 1.16 0 0 0 .62-.796c.047-.214.148-.412.294-.575.198-.082.412-.113.625-.093l-.005-.818a9.004 9.004 0 0 0-.488-.021 1.278 1.278 0 0 0-.738.193 1.78 1.78 0 0 0-.519.884 2.503 2.503 0 0 1-.307.672.637.637 0 0 1-.436.189V9.895h-1.23v4.668h.002Zm4.162 0h1.187l1.925-2.984v2.984h1.186V9.895h-1.212l-1.9 2.931v-2.93h-1.187v4.666l.001.001Zm5.173 0h1.187l1.924-2.984v2.984h1.187V9.895h-1.212l-1.9 2.931v-2.93h-1.187v4.666l.001.001Zm2.74-6.089a1.02 1.02 0 0 1-1.1 0 .677.677 0 0 1-.22-.473h-.6c.015.355.165.691.42.939a1.5 1.5 0 0 0 1.9 0c.255-.248.405-.585.42-.94h-.6a.678.678 0 0 1-.22.474ZM45.119 24.293h1.007V22.05h-.5v-3.655h-3.767c.01.86-.072 1.717-.247 2.558a2.74 2.74 0 0 1-.523 1.1h-.505v2.241h1v-1.232h3.533v1.231h.002ZM42.3 22.05c.36-.472.565-1.352.615-2.641h1.494l-.006 2.641H42.3Zm6.72.035a.756.756 0 0 1-.489.158.934.934 0 0 1-.712-.305 1.25 1.25 0 0 1-.3-.855h3.095c.075-.75-.13-1.5-.576-2.107a2.073 2.073 0 0 0-1.643-.688 2 2 0 0 0-1.534.657 2.577 2.577 0 0 0-.606 1.817c-.023.572.139 1.136.461 1.609a2.087 2.087 0 0 0 1.8.796 2.2 2.2 0 0 0 1.281-.355c.355-.253.618-.614.75-1.03l-1.23-.206a.977.977 0 0 1-.3.511l.002-.002Zm-1.477-1.758a1.14 1.14 0 0 1 .26-.8.89.89 0 0 1 1.309-.015c.19.227.29.518.277.814H47.54l.003.001Zm3.683 4.509h1.235v-2.35c.187.214.411.393.662.527.218.105.457.158.7.154a1.78 1.78 0 0 0 1.383-.65 2.657 2.657 0 0 0 .572-1.816 2.58 2.58 0 0 0-.567-1.776 1.78 1.78 0 0 0-1.38-.637 1.724 1.724 0 0 0-1.457.791v-.684h-1.15v6.443l.002-.002Zm1.52-5.223a.95.95 0 0 1 .75-.35.91.91 0 0 1 .73.356c.22.319.325.704.294 1.09.035.399-.065.797-.285 1.131a.891.891 0 0 1-.716.346.953.953 0 0 1-.76-.376 1.8 1.8 0 0 1-.313-1.162 1.556 1.556 0 0 1 .298-1.033l.002-.002Zm6.694 3.45v-1.991c.14.002.276.056.38.15.125.146.224.312.292.492l.584 1.35h1.328l-.66-1.288a1.953 1.953 0 0 0-1.041-1.107 1.171 1.171 0 0 0 .62-.796c.05-.213.152-.41.3-.573a1.29 1.29 0 0 1 .624-.095v-.818c-.245-.015-.41-.022-.496-.022a1.31 1.31 0 0 0-.727.184 1.783 1.783 0 0 0-.534.893 2.934 2.934 0 0 1-.315.707.428.428 0 0 1-.358.154v-1.908h-1.225v1.908a.45.45 0 0 1-.357-.156 2.917 2.917 0 0 1-.316-.705 1.75 1.75 0 0 0-.545-.897 1.3 1.3 0 0 0-.7-.18 9.87 9.87 0 0 0-.51.022v.817a1.29 1.29 0 0 1 .627.095 1.3 1.3 0 0 1 .296.573 1.17 1.17 0 0 0 .62.796 1.953 1.953 0 0 0-1.042 1.108l-.659 1.287h1.327l.589-1.35c.09-.19.201-.37.331-.534a.547.547 0 0 1 .337-.107v1.99h1.226l.004.001Zm4.193-3.7a.884.884 0 0 1 .514-.13c.232-.024.465.029.663.15a.639.639 0 0 1 .176.508v.123c-.39.138-.791.24-1.2.303a4.135 4.135 0 0 0-.982.288c-.22.103-.404.268-.53.474a1.327 1.327 0 0 0-.188.706 1.3 1.3 0 0 0 .415.988c.313.274.72.415 1.136.392.264.001.525-.051.769-.154.252-.111.481-.268.676-.462.009.024.024.072.044.145.047.161.087.283.119.365h1.221a2.636 2.636 0 0 1-.221-.626 5.012 5.012 0 0 1-.06-.907l.013-1.442a2.554 2.554 0 0 0-.164-1.105 1.23 1.23 0 0 0-.57-.496 2.955 2.955 0 0 0-1.23-.196 2.38 2.38 0 0 0-1.371.325c-.327.247-.557.6-.65 1l1.121.2a.9.9 0 0 1 .296-.448l.002-.001Zm1.353 1.703c.008.201-.009.403-.05.6a.774.774 0 0 1-.295.409 1.07 1.07 0 0 1-.637.219.674.674 0 0 1-.636-.394.605.605 0 0 1-.05-.245.514.514 0 0 1 .242-.435c.212-.107.439-.18.672-.215a7.71 7.71 0 0 0 .75-.19v.246l.004.005Zm2.084 1.995h2.94c.421.03.84-.09 1.181-.34a1.109 1.109 0 0 0 .4-.886 1.18 1.18 0 0 0-.237-.712 1.209 1.209 0 0 0-.72-.444 1.096 1.096 0 0 0 .795-1.068 1.06 1.06 0 0 0-.413-.914 2.1 2.1 0 0 0-1.244-.303h-2.703v4.667Zm1.243-3.876h.796c.288-.02.579.023.85.126a.437.437 0 0 1 .239.419.488.488 0 0 1-.257.457 1.783 1.783 0 0 1-.833.145h-.796v-1.146l.001-.001Zm0 1.9h.633c.364-.024.729.02 1.076.13a.547.547 0 0 1 .036.929c-.243.1-.506.144-.769.128h-.976v-1.187Zm3.867 1.977h1.235v-1.96h1.767v1.96h1.24v-4.667h-1.24v1.71h-1.767v-1.71H72.18v4.668Zm5.094 0h1.187l1.924-2.984v2.985h1.187v-4.668h-1.213l-1.9 2.931v-2.93h-1.186v4.666h.002Zm5.173 0h1.186l1.925-2.984v2.985h1.187v-4.668h-1.213l-1.9 2.931v-2.93h-1.187v4.666h.002Zm2.738-6.088a1.022 1.022 0 0 1-1.1 0 .676.676 0 0 1-.221-.474h-.6c.015.355.165.69.42.939a1.5 1.5 0 0 0 1.903 0c.253-.249.402-.584.417-.939h-.6a.677.677 0 0 1-.221.474h.002ZM42.45 31.576c-.06.234-.168.453-.317.643a.776.776 0 0 1-.633.253 2.728 2.728 0 0 1-.523-.057l.11.967c.23.05.465.075.7.075.212.002.424-.023.63-.075a1.48 1.48 0 0 0 .47-.209c.133-.095.248-.214.339-.35.125-.197.229-.406.31-.624l.294-.813 1.65-4.491h-1.284l-1.09 3.314-1.116-3.314h-1.314l1.774 4.68Zm3.406-.014h1.235v-1.96h1.767v1.96H50.1v-4.667h-1.241v1.71h-1.767v-1.71h-1.234v4.668h-.002Zm6.36-5.3V25.12H50.98v1.142h1.236Zm0 5.3v-4.667H50.98v4.668h1.236Zm.918 0h2.94c.422.031.841-.09 1.182-.34a1.108 1.108 0 0 0 .4-.886c0-.256-.083-.506-.237-.711a1.21 1.21 0 0 0-.721-.445 1.096 1.096 0 0 0 .795-1.067 1.06 1.06 0 0 0-.413-.915 2.1 2.1 0 0 0-1.243-.303h-2.703v4.668Zm1.244-3.876h.795c.289-.02.579.023.85.126a.437.437 0 0 1 .24.42.486.486 0 0 1-.258.457 1.783 1.783 0 0 1-.833.145h-.794v-1.148Zm0 1.9h.633c.363-.023.729.02 1.076.13a.547.547 0 0 1 .035.93c-.243.1-.506.143-.769.127h-.975v-1.188.002Zm6.2 1a.756.756 0 0 1-.488.159.935.935 0 0 1-.712-.306 1.25 1.25 0 0 1-.3-.855h3.093c.076-.749-.13-1.5-.575-2.107a2.072 2.072 0 0 0-1.643-.687 2 2 0 0 0-1.535.657 2.578 2.578 0 0 0-.606 1.817c-.022.572.14 1.136.462 1.608a2.088 2.088 0 0 0 1.8.796 2.2 2.2 0 0 0 1.28-.354c.355-.253.618-.615.75-1.03l-1.23-.207a.98.98 0 0 1-.294.51h-.002Zm-1.477-1.758a1.14 1.14 0 0 1 .26-.8.857.857 0 0 1 .668-.294.85.85 0 0 1 .641.279c.19.227.29.518.277.815h-1.846Zm3.683 4.51h1.235v-2.35c.187.214.411.392.661.527.219.104.458.157.7.154a1.778 1.778 0 0 0 1.385-.65 2.657 2.657 0 0 0 .571-1.817 2.58 2.58 0 0 0-.567-1.776 1.78 1.78 0 0 0-1.38-.636 1.724 1.724 0 0 0-1.456.791v-.686h-1.15v6.443h.001Zm1.521-5.224a.946.946 0 0 1 .75-.35.91.91 0 0 1 .73.357c.22.318.324.703.294 1.09.035.398-.066.797-.285 1.131a.893.893 0 0 1-.717.345.953.953 0 0 1-.76-.376 1.8 1.8 0 0 1-.312-1.162c-.026-.37.082-.736.303-1.034h-.003Zm7-.957a2.255 2.255 0 0 0-1.356-.367 2.168 2.168 0 0 0-1.65.643 2.509 2.509 0 0 0-.611 1.8c-.038.653.18 1.295.608 1.789a2.135 2.135 0 0 0 1.633.646 2.243 2.243 0 0 0 1.437-.426 2.15 2.15 0 0 0 .725-1.262l-1.212-.206a1.2 1.2 0 0 1-.317.688.833.833 0 0 1-.575.2.917.917 0 0 1-.75-.343 1.888 1.888 0 0 1-.28-1.174 1.633 1.633 0 0 1 .275-1.065.924.924 0 0 1 .737-.318.843.843 0 0 1 .564.184c.156.144.255.34.279.55l1.218-.22a2.033 2.033 0 0 0-.724-1.119h-.001Zm1.268 4.405h1.187l1.924-2.984v2.984h1.187v-4.667h-1.213l-1.9 2.931v-2.93h-1.186v4.666h.001Zm4.65-3.67h1.494v3.67h1.235v-3.669h1.494v-1h-4.223v1Zm7.005 2.695a.756.756 0 0 1-.487.157.934.934 0 0 1-.713-.305 1.25 1.25 0 0 1-.3-.855h3.095c.075-.749-.13-1.5-.576-2.107a2.074 2.074 0 0 0-1.644-.687 1.998 1.998 0 0 0-1.533.657 2.576 2.576 0 0 0-.607 1.817c-.023.572.14 1.136.462 1.608a2.088 2.088 0 0 0 1.8.796 2.2 2.2 0 0 0 1.28-.354c.355-.253.618-.615.75-1.03l-1.23-.207a.977.977 0 0 1-.296.51h-.001Zm-1.477-1.759c-.018-.29.075-.576.26-.8a.89.89 0 0 1 1.31-.015c.19.228.289.518.276.815h-1.846Zm3.046-.936h1.495v3.67h1.234v-3.669h1.495v-1H85.8v1h-.002Z" fill="#fff"/>
</svg><svg fill="none" viewBox="0 0 24 24" id="mail" xmlns="http://www.w3.org/2000/svg">
    <path d="M22 6c0-1.1-.9-2-2-2H4c-1.1 0-2 .9-2 2v12c0 1.1.9 2 2 2h16c1.1 0 2-.9 2-2V6Zm-2 0-8 5-8-5h16Zm0 12H4V8l8 5 8-5v10Z" fill="#FF8017"/>
</svg><svg viewBox="0 0 24 24" fill="none" id="mail-white" xmlns="http://www.w3.org/2000/svg">
    <path d="m3 8 5.45 3.633c1.283.856 1.925 1.283 2.618 1.45a4.001 4.001 0 0 0 1.864 0c.694-.167 1.335-.594 2.618-1.45L21 8M6.2 19h11.6c1.12 0 1.68 0 2.108-.218a2 2 0 0 0 .874-.874C21 17.48 21 16.92 21 15.8V8.2c0-1.12 0-1.68-.218-2.108a2 2 0 0 0-.874-.874C19.48 5 18.92 5 17.8 5H6.2c-1.12 0-1.68 0-2.108.218a2 2 0 0 0-.874.874C3 6.52 3 7.08 3 8.2v7.6c0 1.12 0 1.68.218 2.108a2 2 0 0 0 .874.874C4.52 19 5.08 19 6.2 19Z" stroke="#fff" stroke-width="2" stroke-linecap="round" stroke-linejoin="round"/>
</svg><svg fill="none" viewBox="0 0 30 30" id="minus" xmlns="http://www.w3.org/2000/svg">
    <path d="M6.25 15h17.5" stroke="#FF8017" stroke-width="2" stroke-linecap="round" stroke-linejoin="round"/>
</svg><svg fill="none" viewBox="0 0 11 21" id="owl-arrow-l" xmlns="http://www.w3.org/2000/svg">
    <path d="M10.727 1.687a1.002 1.002 0 0 0-.37-1.622 1 1 0 0 0-1.084.248l-8.5 9a1 1 0 0 0 0 1.374l8.5 9.001a1 1 0 1 0 1.454-1.373L2.875 10l7.852-8.313Z" fill="#747474"/>
</svg><svg fill="none" viewBox="0 0 11 21" id="owl-arrow-r" xmlns="http://www.w3.org/2000/svg">
    <path d="M.273 1.687A1 1 0 1 1 1.727.313l8.5 9a1 1 0 0 1 0 1.374l-8.5 9.001a1 1 0 1 1-1.454-1.373L8.125 10 .273 1.687Z" fill="#747474"/>
</svg><svg fill="none" viewBox="0 0 30 30" id="plus" xmlns="http://www.w3.org/2000/svg">
    <path d="M22.5 16.247h-6.25v6.25a1.25 1.25 0 0 1-2.5 0v-6.25H7.5a1.25 1.25 0 0 1 0-2.5h6.25v-6.25a1.25 1.25 0 0 1 2.5 0v6.25h6.25a1.25 1.25 0 0 1 0 2.5Z" fill="#363636"/>
</svg><svg fill="none" viewBox="0 0 25 25" id="quest1" xmlns="http://www.w3.org/2000/svg">
    <circle cx="13" cy="13" r="10" fill="#00386B"/>
    <g clip-path="url(#ma)">
        <path d="M16.771 8.536c-2.083-2.049-5.46-2.049-7.542 0a5.187 5.187 0 0 0 0 7.42l3.77 3.71 3.772-3.71a5.186 5.186 0 0 0 0-7.42ZM13 13.999a1.668 1.668 0 0 1 0-3.333 1.668 1.668 0 0 1 0 3.333Z" fill="#fff"/>
    </g>
    <defs>
        <clipPath id="ma">
            <path fill="#fff" transform="translate(5 5)" d="M0 0h16v16H0z"/>
        </clipPath>
    </defs>
</svg><svg fill="none" viewBox="0 0 25 25" id="quest2" xmlns="http://www.w3.org/2000/svg">
    <circle cx="13" cy="13" r="10" fill="#00386B"/>
    <g clip-path="url(#na)">
        <g clip-path="url(#nb)" stroke="#fff" stroke-width="2">
            <path d="M19 13a6 6 0 1 0-4.447 5.795" stroke-linecap="round"/>
            <path d="M13 15.667a2.667 2.667 0 1 0 0-5.334 2.667 2.667 0 0 0 0 5.334Z"/>
            <path d="M15.666 11v3A1.666 1.666 0 1 0 19 14v-1" stroke-linecap="round"/>
        </g>
    </g>
    <defs>
        <clipPath id="na">
            <path fill="#fff" transform="translate(5 5)" d="M0 0h16v16H0z"/>
        </clipPath>
        <clipPath id="nb">
            <path fill="#fff" transform="translate(5 5)" d="M0 0h16v16H0z"/>
        </clipPath>
    </defs>
</svg><svg fill="none" viewBox="0 0 51 43" id="quote" xmlns="http://www.w3.org/2000/svg">
    <path d="M22.035.477C12.998 1.112.007 2.555 0 20.254v22.269h20.166V18.697H13.47c-.424-6.362 4.815-8.005 10.512-9.266L22.035.477Zm27.018 0c-9.037.635-22.028 2.078-22.035 19.777v22.269h20.167V18.697h-6.696c-.425-6.362 4.814-8.005 10.511-9.266L49.053.477Z" fill="#00386B"/>
</svg><svg fill="none" viewBox="0 0 19 19" id="search" xmlns="http://www.w3.org/2000/svg">
    <path d="m14.597 14.625 3.208 3.208M16.792 8.98a7.813 7.813 0 1 1-15.625 0 7.813 7.813 0 0 1 15.625 0Z" stroke="#00386B" stroke-width="1.5" stroke-linecap="round" stroke-linejoin="round"/>
</svg><svg fill="none" viewBox="0 0 25 25" id="social-fb" xmlns="http://www.w3.org/2000/svg">
    <path d="M22.917 12.5c0-5.75-4.667-10.417-10.417-10.417S2.083 6.75 2.083 12.5c0 5.042 3.584 9.24 8.334 10.208v-7.083H8.333V12.5h2.084V9.896a3.65 3.65 0 0 1 3.646-3.646h2.604v3.125h-2.084c-.573 0-1.041.469-1.041 1.042V12.5h3.125v3.125h-3.125v7.24c5.26-.521 9.375-4.959 9.375-10.365Z" fill="#00386B"/>
</svg><svg fill="none" viewBox="0 0 25 25" id="social-inst" xmlns="http://www.w3.org/2000/svg">
    <g clip-path="url(#ra)">
        <path d="M16.25 12.5a3.75 3.75 0 0 1-7.5 0c0-.214.021-.422.061-.625H7.5v4.996c0 .348.281.629.629.629h8.743a.629.629 0 0 0 .628-.629v-4.996h-1.311c.04.203.06.41.061.625ZM12.5 15a2.5 2.5 0 1 0-.001-5 2.5 2.5 0 0 0 .001 5Zm3-5.125h1.499a.375.375 0 0 0 .376-.375V8.001a.375.375 0 0 0-.376-.376H15.5a.375.375 0 0 0-.376.376V9.5c.001.206.17.375.376.375ZM12.5.5a12 12 0 1 0 0 24 12 12 0 0 0 0-24Zm6.25 16.861c0 .764-.625 1.389-1.389 1.389H7.64a1.393 1.393 0 0 1-1.389-1.389V7.64c0-.764.625-1.389 1.389-1.389h9.722c.764 0 1.389.625 1.389 1.389v9.722Z" fill="#00386B"/>
    </g>
    <defs>
        <clipPath id="ra">
            <path fill="#fff" d="M0 0h25v25H0z"/>
        </clipPath>
    </defs>
</svg><svg fill="none" viewBox="0 0 25 25" id="social-ytube" xmlns="http://www.w3.org/2000/svg">
    <g clip-path="url(#sa)">
        <path d="m14.504 12.291-2.808-1.31c-.245-.114-.446.014-.446.285v2.468c0 .271.201.399.446.285l2.806-1.31c.247-.115.247-.303.002-.418ZM12.5.5C5.872.5.5 5.872.5 12.5s5.372 12 12 12 12-5.372 12-12-5.372-12-12-12Zm0 16.875c-6.143 0-6.25-.554-6.25-4.875s.107-4.875 6.25-4.875c6.142 0 6.25.554 6.25 4.875s-.108 4.875-6.25 4.875Z" fill="#00386B"/>
    </g>
    <defs>
        <clipPath id="sa">
            <path fill="#fff" d="M0 0h25v25H0z"/>
        </clipPath>
    </defs>
</svg><svg fill="none" viewBox="0 0 24 24" id="telephone" xmlns="http://www.w3.org/2000/svg">
    <path d="M20.333 5H3.667C2.75 5 2 5.75 2 6.667v11.666C2 19.25 2.75 20 3.667 20h16.666c.917 0 1.659-.75 1.659-1.667L22 6.667C22 5.75 21.25 5 20.333 5Zm0 13.333H3.667V6.667h16.666v11.666Zm-2.491-.841 1.658-1.659-1.258-1.666h-1.367a5.042 5.042 0 0 1-.292-1.667c0-.583.109-1.142.292-1.667h1.367L19.5 9.167l-1.658-1.659a6.228 6.228 0 0 0-2.275 3.325 6.146 6.146 0 0 0-.234 1.667c0 .575.084 1.133.234 1.667a6.26 6.26 0 0 0 2.275 3.325ZM9.5 12.5c1.375 0 2.5-1.125 2.5-2.5s-1.125-2.5-2.5-2.5A2.507 2.507 0 0 0 7 10c0 1.375 1.125 2.5 2.5 2.5Zm0-3.333c.458 0 .833.375.833.833a.836.836 0 0 1-.833.833.836.836 0 0 1-.833-.833c0-.458.375-.833.833-.833Zm5 7.158c0-2.083-3.308-2.983-5-2.983-1.692 0-5 .9-5 2.983V17.5h10v-1.175Zm-7.933-.492C7.183 15.417 8.417 15 9.5 15c1.083 0 2.308.408 2.933.833H6.567Z" fill="#FF8017"/>
</svg></svg>